  0
SECTION
  2
BLOCKS
  0
ENDSEC
  0
SECTION
  2
ENTITIES
  0
LINE
  8
0
 10
-18
 11
-17.975
 20
0
 21
0.942
  0
LINE
  8
0
 10
-17.975
 11
-17.901
 20
0.942
 21
1.882
  0
LINE
  8
0
 10
-17.901
 11
-17.778
 20
1.882
 21
2.816
  0
LINE
  8
0
 10
-17.778
 11
-17.607
 20
2.816
 21
3.742
  0
LINE
  8
0
 10
-17.607
 11
-15.367
 20
3.742
 21
13.953
  0
LINE
  8
0
 10
-15.367
 11
-15.247
 20
13.953
 21
14.28
  0
LINE
  8
0
 10
-15.247
 11
-15.073
 20
14.28
 21
14.583
  0
LINE
  8
0
 10
-15.073
 11
-14.849
 20
14.583
 21
14.849
  0
LINE
  8
0
 10
-14.849
 11
-14.583
 20
14.849
 21
15.073
  0
LINE
  8
0
 10
-14.583
 11
-14.28
 20
15.073
 21
15.247
  0
LINE
  8
0
 10
-14.28
 11
-13.953
 20
15.247
 21
15.367
  0
LINE
  8
0
 10
-13.953
 11
-3.742
 20
15.367
 21
17.607
  0
LINE
  8
0
 10
-3.742
 11
-2.816
 20
17.607
 21
17.778
  0
LINE
  8
0
 10
-2.816
 11
-1.882
 20
17.778
 21
17.901
  0
LINE
  8
0
 10
-1.882
 11
-0.942
 20
17.901
 21
17.975
  0
LINE
  8
0
 10
-0.942
 11
0
 20
17.975
 21
18
  0
LINE
  8
0
 10
0
 11
0.942
 20
18
 21
17.975
  0
LINE
  8
0
 10
0.942
 11
1.882
 20
17.975
 21
17.901
  0
LINE
  8
0
 10
1.882
 11
2.816
 20
17.901
 21
17.778
  0
LINE
  8
0
 10
2.816
 11
3.742
 20
17.778
 21
17.607
  0
LINE
  8
0
 10
3.742
 11
13.953
 20
17.607
 21
15.367
  0
LINE
  8
0
 10
13.953
 11
14.28
 20
15.367
 21
15.247
  0
LINE
  8
0
 10
14.28
 11
14.583
 20
15.247
 21
15.073
  0
LINE
  8
0
 10
14.583
 11
14.849
 20
15.073
 21
14.849
  0
LINE
  8
0
 10
14.849
 11
15.073
 20
14.849
 21
14.583
  0
LINE
  8
0
 10
15.073
 11
15.247
 20
14.583
 21
14.28
  0
LINE
  8
0
 10
15.247
 11
15.367
 20
14.28
 21
13.953
  0
LINE
  8
0
 10
15.367
 11
17.607
 20
13.953
 21
3.742
  0
LINE
  8
0
 10
17.607
 11
17.778
 20
3.742
 21
2.816
  0
LINE
  8
0
 10
17.778
 11
17.901
 20
2.816
 21
1.882
  0
LINE
  8
0
 10
17.901
 11
17.975
 20
1.882
 21
0.942
  0
LINE
  8
0
 10
17.975
 11
18
 20
0.942
 21
0
  0
LINE
  8
0
 10
18
 11
17.975
 20
0
 21
-0.942
  0
LINE
  8
0
 10
17.975
 11
17.901
 20
-0.942
 21
-1.882
  0
LINE
  8
0
 10
17.901
 11
17.778
 20
-1.882
 21
-2.816
  0
LINE
  8
0
 10
17.778
 11
17.607
 20
-2.816
 21
-3.742
  0
LINE
  8
0
 10
17.607
 11
15.367
 20
-3.742
 21
-13.953
  0
LINE
  8
0
 10
15.367
 11
15.247
 20
-13.953
 21
-14.28
  0
LINE
  8
0
 10
15.247
 11
15.073
 20
-14.28
 21
-14.583
  0
LINE
  8
0
 10
15.073
 11
14.849
 20
-14.583
 21
-14.849
  0
LINE
  8
0
 10
14.849
 11
14.583
 20
-14.849
 21
-15.073
  0
LINE
  8
0
 10
14.583
 11
14.28
 20
-15.073
 21
-15.247
  0
LINE
  8
0
 10
14.28
 11
13.953
 20
-15.247
 21
-15.367
  0
LINE
  8
0
 10
13.953
 11
3.742
 20
-15.367
 21
-17.607
  0
LINE
  8
0
 10
3.742
 11
2.816
 20
-17.607
 21
-17.778
  0
LINE
  8
0
 10
2.816
 11
1.882
 20
-17.778
 21
-17.901
  0
LINE
  8
0
 10
1.882
 11
0.942
 20
-17.901
 21
-17.975
  0
LINE
  8
0
 10
0.942
 11
0
 20
-17.975
 21
-18
  0
LINE
  8
0
 10
0
 11
-0.942
 20
-18
 21
-17.975
  0
LINE
  8
0
 10
-0.942
 11
-1.882
 20
-17.975
 21
-17.901
  0
LINE
  8
0
 10
-1.882
 11
-2.816
 20
-17.901
 21
-17.778
  0
LINE
  8
0
 10
-2.816
 11
-3.742
 20
-17.778
 21
-17.607
  0
LINE
  8
0
 10
-3.742
 11
-13.953
 20
-17.607
 21
-15.367
  0
LINE
  8
0
 10
-13.953
 11
-14.28
 20
-15.367
 21
-15.247
  0
LINE
  8
0
 10
-14.28
 11
-14.583
 20
-15.247
 21
-15.073
  0
LINE
  8
0
 10
-14.583
 11
-14.849
 20
-15.073
 21
-14.849
  0
LINE
  8
0
 10
-14.849
 11
-15.073
 20
-14.849
 21
-14.583
  0
LINE
  8
0
 10
-15.073
 11
-15.247
 20
-14.583
 21
-14.28
  0
LINE
  8
0
 10
-15.247
 11
-15.367
 20
-14.28
 21
-13.953
  0
LINE
  8
0
 10
-15.367
 11
-17.607
 20
-13.953
 21
-3.742
  0
LINE
  8
0
 10
-17.607
 11
-17.778
 20
-3.742
 21
-2.816
  0
LINE
  8
0
 10
-17.778
 11
-17.901
 20
-2.816
 21
-1.882
  0
LINE
  8
0
 10
-17.901
 11
-17.975
 20
-1.882
 21
-0.942
  0
LINE
  8
0
 10
-17.975
 11
-18
 20
-0.942
 21
0
  0
LINE
  8
0
 10
-15.527
 11
-12.402
 20
5.356
 21
10.769
  0
LINE
  8
0
 10
-12.402
 11
-6.99
 20
10.769
 21
7.644
  0
LINE
  8
0
 10
-6.99
 11
-10.115
 20
7.644
 21
2.231
  0
LINE
  8
0
 10
-10.115
 11
-15.527
 20
2.231
 21
5.356
  0
LINE
  8
0
 10
-1.75
 11
-1.716
 20
-15
 21
-14.659
  0
LINE
  8
0
 10
-1.716
 11
-1.617
 20
-14.659
 21
-14.33
  0
LINE
  8
0
 10
-1.617
 11
-1.455
 20
-14.33
 21
-14.028
  0
LINE
  8
0
 10
-1.455
 11
-1.237
 20
-14.028
 21
-13.763
  0
LINE
  8
0
 10
-1.237
 11
-0.972
 20
-13.763
 21
-13.545
  0
LINE
  8
0
 10
-0.972
 11
-0.67
 20
-13.545
 21
-13.383
  0
LINE
  8
0
 10
-0.67
 11
-0.341
 20
-13.383
 21
-13.284
  0
LINE
  8
0
 10
-0.341
 11
0
 20
-13.284
 21
-13.25
  0
LINE
  8
0
 10
0
 11
0.341
 20
-13.25
 21
-13.284
  0
LINE
  8
0
 10
0.341
 11
0.67
 20
-13.284
 21
-13.383
  0
LINE
  8
0
 10
0.67
 11
0.972
 20
-13.383
 21
-13.545
  0
LINE
  8
0
 10
0.972
 11
1.237
 20
-13.545
 21
-13.763
  0
LINE
  8
0
 10
1.237
 11
1.455
 20
-13.763
 21
-14.028
  0
LINE
  8
0
 10
1.455
 11
1.617
 20
-14.028
 21
-14.33
  0
LINE
  8
0
 10
1.617
 11
1.716
 20
-14.33
 21
-14.659
  0
LINE
  8
0
 10
1.716
 11
1.75
 20
-14.659
 21
-15
  0
LINE
  8
0
 10
1.75
 11
1.716
 20
-15
 21
-15.341
  0
LINE
  8
0
 10
1.716
 11
1.617
 20
-15.341
 21
-15.67
  0
LINE
  8
0
 10
1.617
 11
1.455
 20
-15.67
 21
-15.972
  0
LINE
  8
0
 10
1.455
 11
1.237
 20
-15.972
 21
-16.237
  0
LINE
  8
0
 10
1.237
 11
0.972
 20
-16.237
 21
-16.455
  0
LINE
  8
0
 10
0.972
 11
0.67
 20
-16.455
 21
-16.617
  0
LINE
  8
0
 10
0.67
 11
0.341
 20
-16.617
 21
-16.716
  0
LINE
  8
0
 10
0.341
 11
0
 20
-16.716
 21
-16.75
  0
LINE
  8
0
 10
0
 11
-0.341
 20
-16.75
 21
-16.716
  0
LINE
  8
0
 10
-0.341
 11
-0.67
 20
-16.716
 21
-16.617
  0
LINE
  8
0
 10
-0.67
 11
-0.972
 20
-16.617
 21
-16.455
  0
LINE
  8
0
 10
-0.972
 11
-1.237
 20
-16.455
 21
-16.237
  0
LINE
  8
0
 10
-1.237
 11
-1.455
 20
-16.237
 21
-15.972
  0
LINE
  8
0
 10
-1.455
 11
-1.617
 20
-15.972
 21
-15.67
  0
LINE
  8
0
 10
-1.617
 11
-1.716
 20
-15.67
 21
-15.341
  0
LINE
  8
0
 10
-1.716
 11
-1.75
 20
-15.341
 21
-15
  0
LINE
  8
0
 10
6.99
 11
12.402
 20
7.644
 21
10.769
  0
LINE
  8
0
 10
12.402
 11
15.527
 20
10.769
 21
5.356
  0
LINE
  8
0
 10
15.527
 11
10.115
 20
5.356
 21
2.231
  0
LINE
  8
0
 10
10.115
 11
6.99
 20
2.231
 21
7.644
  0
ENDSEC
  0
SECTION
  2
OBJECTS
  0
DICTIONARY
  0
ENDSEC
  0
EOF
