  0
SECTION
  2
BLOCKS
  0
ENDSEC
  0
SECTION
  2
ENTITIES
  0
LINE
  8
0
 10
-42
 11
-41.942
 20
0
 21
2.198
  0
LINE
  8
0
 10
-41.942
 11
-41.77
 20
2.198
 21
4.39
  0
LINE
  8
0
 10
-41.77
 11
-41.483
 20
4.39
 21
6.57
  0
LINE
  8
0
 10
-41.483
 11
-41.082
 20
6.57
 21
8.732
  0
LINE
  8
0
 10
-41.082
 11
-40.569
 20
8.732
 21
10.87
  0
LINE
  8
0
 10
-40.569
 11
-35.494
 20
10.87
 21
31.251
  0
LINE
  8
0
 10
-35.494
 11
-35.136
 20
31.251
 21
32.234
  0
LINE
  8
0
 10
-35.136
 11
-34.614
 20
32.234
 21
33.14
  0
LINE
  8
0
 10
-34.614
 11
-33.941
 20
33.14
 21
33.941
  0
LINE
  8
0
 10
-33.941
 11
-33.14
 20
33.941
 21
34.614
  0
LINE
  8
0
 10
-33.14
 11
-32.234
 20
34.614
 21
35.136
  0
LINE
  8
0
 10
-32.234
 11
-31.251
 20
35.136
 21
35.494
  0
LINE
  8
0
 10
-31.251
 11
-10.87
 20
35.494
 21
40.569
  0
LINE
  8
0
 10
-10.87
 11
-8.732
 20
40.569
 21
41.082
  0
LINE
  8
0
 10
-8.732
 11
-6.57
 20
41.082
 21
41.483
  0
LINE
  8
0
 10
-6.57
 11
-4.39
 20
41.483
 21
41.77
  0
LINE
  8
0
 10
-4.39
 11
-2.198
 20
41.77
 21
41.942
  0
LINE
  8
0
 10
-2.198
 11
0
 20
41.942
 21
42
  0
LINE
  8
0
 10
0
 11
2.198
 20
42
 21
41.942
  0
LINE
  8
0
 10
2.198
 11
4.39
 20
41.942
 21
41.77
  0
LINE
  8
0
 10
4.39
 11
6.57
 20
41.77
 21
41.483
  0
LINE
  8
0
 10
6.57
 11
8.732
 20
41.483
 21
41.082
  0
LINE
  8
0
 10
8.732
 11
10.87
 20
41.082
 21
40.569
  0
LINE
  8
0
 10
10.87
 11
31.251
 20
40.569
 21
35.494
  0
LINE
  8
0
 10
31.251
 11
32.234
 20
35.494
 21
35.136
  0
LINE
  8
0
 10
32.234
 11
33.14
 20
35.136
 21
34.614
  0
LINE
  8
0
 10
33.14
 11
33.941
 20
34.614
 21
33.941
  0
LINE
  8
0
 10
33.941
 11
34.614
 20
33.941
 21
33.14
  0
LINE
  8
0
 10
34.614
 11
35.136
 20
33.14
 21
32.234
  0
LINE
  8
0
 10
35.136
 11
35.494
 20
32.234
 21
31.251
  0
LINE
  8
0
 10
35.494
 11
40.569
 20
31.251
 21
10.87
  0
LINE
  8
0
 10
40.569
 11
41.082
 20
10.87
 21
8.732
  0
LINE
  8
0
 10
41.082
 11
41.483
 20
8.732
 21
6.57
  0
LINE
  8
0
 10
41.483
 11
41.77
 20
6.57
 21
4.39
  0
LINE
  8
0
 10
41.77
 11
41.942
 20
4.39
 21
2.198
  0
LINE
  8
0
 10
41.942
 11
42
 20
2.198
 21
0
  0
LINE
  8
0
 10
42
 11
41.942
 20
0
 21
-2.198
  0
LINE
  8
0
 10
41.942
 11
41.77
 20
-2.198
 21
-4.39
  0
LINE
  8
0
 10
41.77
 11
41.483
 20
-4.39
 21
-6.57
  0
LINE
  8
0
 10
41.483
 11
41.082
 20
-6.57
 21
-8.732
  0
LINE
  8
0
 10
41.082
 11
40.569
 20
-8.732
 21
-10.87
  0
LINE
  8
0
 10
40.569
 11
35.494
 20
-10.87
 21
-31.251
  0
LINE
  8
0
 10
35.494
 11
35.136
 20
-31.251
 21
-32.234
  0
LINE
  8
0
 10
35.136
 11
34.614
 20
-32.234
 21
-33.14
  0
LINE
  8
0
 10
34.614
 11
33.941
 20
-33.14
 21
-33.941
  0
LINE
  8
0
 10
33.941
 11
33.14
 20
-33.941
 21
-34.614
  0
LINE
  8
0
 10
33.14
 11
32.234
 20
-34.614
 21
-35.136
  0
LINE
  8
0
 10
32.234
 11
31.251
 20
-35.136
 21
-35.494
  0
LINE
  8
0
 10
31.251
 11
10.87
 20
-35.494
 21
-40.569
  0
LINE
  8
0
 10
10.87
 11
8.732
 20
-40.569
 21
-41.082
  0
LINE
  8
0
 10
8.732
 11
6.57
 20
-41.082
 21
-41.483
  0
LINE
  8
0
 10
6.57
 11
4.39
 20
-41.483
 21
-41.77
  0
LINE
  8
0
 10
4.39
 11
2.198
 20
-41.77
 21
-41.942
  0
LINE
  8
0
 10
2.198
 11
0
 20
-41.942
 21
-42
  0
LINE
  8
0
 10
0
 11
-2.198
 20
-42
 21
-41.942
  0
LINE
  8
0
 10
-2.198
 11
-4.39
 20
-41.942
 21
-41.77
  0
LINE
  8
0
 10
-4.39
 11
-6.57
 20
-41.77
 21
-41.483
  0
LINE
  8
0
 10
-6.57
 11
-8.732
 20
-41.483
 21
-41.082
  0
LINE
  8
0
 10
-8.732
 11
-10.87
 20
-41.082
 21
-40.569
  0
LINE
  8
0
 10
-10.87
 11
-31.251
 20
-40.569
 21
-35.494
  0
LINE
  8
0
 10
-31.251
 11
-32.234
 20
-35.494
 21
-35.136
  0
LINE
  8
0
 10
-32.234
 11
-33.14
 20
-35.136
 21
-34.614
  0
LINE
  8
0
 10
-33.14
 11
-33.941
 20
-34.614
 21
-33.941
  0
LINE
  8
0
 10
-33.941
 11
-34.614
 20
-33.941
 21
-33.14
  0
LINE
  8
0
 10
-34.614
 11
-35.136
 20
-33.14
 21
-32.234
  0
LINE
  8
0
 10
-35.136
 11
-35.494
 20
-32.234
 21
-31.251
  0
LINE
  8
0
 10
-35.494
 11
-40.569
 20
-31.251
 21
-10.87
  0
LINE
  8
0
 10
-40.569
 11
-41.082
 20
-10.87
 21
-8.732
  0
LINE
  8
0
 10
-41.082
 11
-41.483
 20
-8.732
 21
-6.57
  0
LINE
  8
0
 10
-41.483
 11
-41.77
 20
-6.57
 21
-4.39
  0
LINE
  8
0
 10
-41.77
 11
-41.942
 20
-4.39
 21
-2.198
  0
LINE
  8
0
 10
-41.942
 11
-42
 20
-2.198
 21
0
  0
LINE
  8
0
 10
-30.991
 11
-30.991
 20
-29.812
 21
-29.585
  0
LINE
  8
0
 10
-30.991
 11
-30.952
 20
-29.585
 21
-29.363
  0
LINE
  8
0
 10
-30.952
 11
-30.875
 20
-29.363
 21
-29.15
  0
LINE
  8
0
 10
-30.875
 11
-30.761
 20
-29.15
 21
-28.954
  0
LINE
  8
0
 10
-30.761
 11
-30.616
 20
-28.954
 21
-28.781
  0
LINE
  8
0
 10
-30.616
 11
-30.443
 20
-28.781
 21
-28.636
  0
LINE
  8
0
 10
-30.443
 11
-30.247
 20
-28.636
 21
-28.522
  0
LINE
  8
0
 10
-30.247
 11
-30.034
 20
-28.522
 21
-28.445
  0
LINE
  8
0
 10
-30.034
 11
-29.812
 20
-28.445
 21
-28.406
  0
LINE
  8
0
 10
-29.812
 11
-29.585
 20
-28.406
 21
-28.406
  0
LINE
  8
0
 10
-29.585
 11
-29.363
 20
-28.406
 21
-28.445
  0
LINE
  8
0
 10
-29.363
 11
-29.15
 20
-28.445
 21
-28.522
  0
LINE
  8
0
 10
-29.15
 11
-28.954
 20
-28.522
 21
-28.636
  0
LINE
  8
0
 10
-28.954
 11
-28.781
 20
-28.636
 21
-28.781
  0
LINE
  8
0
 10
-28.781
 11
-28.636
 20
-28.781
 21
-28.954
  0
LINE
  8
0
 10
-28.636
 11
-28.522
 20
-28.954
 21
-29.15
  0
LINE
  8
0
 10
-28.522
 11
-28.445
 20
-29.15
 21
-29.363
  0
LINE
  8
0
 10
-28.445
 11
-28.406
 20
-29.363
 21
-29.585
  0
LINE
  8
0
 10
-28.406
 11
-28.406
 20
-29.585
 21
-29.812
  0
LINE
  8
0
 10
-28.406
 11
-28.445
 20
-29.812
 21
-30.034
  0
LINE
  8
0
 10
-28.445
 11
-28.522
 20
-30.034
 21
-30.247
  0
LINE
  8
0
 10
-28.522
 11
-28.636
 20
-30.247
 21
-30.443
  0
LINE
  8
0
 10
-28.636
 11
-28.781
 20
-30.443
 21
-30.616
  0
LINE
  8
0
 10
-28.781
 11
-28.954
 20
-30.616
 21
-30.761
  0
LINE
  8
0
 10
-28.954
 11
-29.15
 20
-30.761
 21
-30.875
  0
LINE
  8
0
 10
-29.15
 11
-29.363
 20
-30.875
 21
-30.952
  0
LINE
  8
0
 10
-29.363
 11
-29.585
 20
-30.952
 21
-30.991
  0
LINE
  8
0
 10
-29.585
 11
-29.812
 20
-30.991
 21
-30.991
  0
LINE
  8
0
 10
-29.812
 11
-30.034
 20
-30.991
 21
-30.952
  0
LINE
  8
0
 10
-30.034
 11
-30.247
 20
-30.952
 21
-30.875
  0
LINE
  8
0
 10
-30.247
 11
-30.443
 20
-30.875
 21
-30.761
  0
LINE
  8
0
 10
-30.443
 11
-30.616
 20
-30.761
 21
-30.616
  0
LINE
  8
0
 10
-30.616
 11
-30.761
 20
-30.616
 21
-30.443
  0
LINE
  8
0
 10
-30.761
 11
-30.875
 20
-30.443
 21
-30.247
  0
LINE
  8
0
 10
-30.875
 11
-30.952
 20
-30.247
 21
-30.034
  0
LINE
  8
0
 10
-30.952
 11
-30.991
 20
-30.034
 21
-29.812
  0
LINE
  8
0
 10
-30.991
 11
-30.991
 20
29.585
 21
29.812
  0
LINE
  8
0
 10
-30.991
 11
-30.952
 20
29.812
 21
30.034
  0
LINE
  8
0
 10
-30.952
 11
-30.875
 20
30.034
 21
30.247
  0
LINE
  8
0
 10
-30.875
 11
-30.761
 20
30.247
 21
30.443
  0
LINE
  8
0
 10
-30.761
 11
-30.616
 20
30.443
 21
30.616
  0
LINE
  8
0
 10
-30.616
 11
-30.443
 20
30.616
 21
30.761
  0
LINE
  8
0
 10
-30.443
 11
-30.247
 20
30.761
 21
30.875
  0
LINE
  8
0
 10
-30.247
 11
-30.034
 20
30.875
 21
30.952
  0
LINE
  8
0
 10
-30.034
 11
-29.812
 20
30.952
 21
30.991
  0
LINE
  8
0
 10
-29.812
 11
-29.585
 20
30.991
 21
30.991
  0
LINE
  8
0
 10
-29.585
 11
-29.363
 20
30.991
 21
30.952
  0
LINE
  8
0
 10
-29.363
 11
-29.15
 20
30.952
 21
30.875
  0
LINE
  8
0
 10
-29.15
 11
-28.954
 20
30.875
 21
30.761
  0
LINE
  8
0
 10
-28.954
 11
-28.781
 20
30.761
 21
30.616
  0
LINE
  8
0
 10
-28.781
 11
-28.636
 20
30.616
 21
30.443
  0
LINE
  8
0
 10
-28.636
 11
-28.522
 20
30.443
 21
30.247
  0
LINE
  8
0
 10
-28.522
 11
-28.445
 20
30.247
 21
30.034
  0
LINE
  8
0
 10
-28.445
 11
-28.406
 20
30.034
 21
29.812
  0
LINE
  8
0
 10
-28.406
 11
-28.406
 20
29.812
 21
29.585
  0
LINE
  8
0
 10
-28.406
 11
-28.445
 20
29.585
 21
29.363
  0
LINE
  8
0
 10
-28.445
 11
-28.522
 20
29.363
 21
29.15
  0
LINE
  8
0
 10
-28.522
 11
-28.636
 20
29.15
 21
28.954
  0
LINE
  8
0
 10
-28.636
 11
-28.781
 20
28.954
 21
28.781
  0
LINE
  8
0
 10
-28.781
 11
-28.954
 20
28.781
 21
28.636
  0
LINE
  8
0
 10
-28.954
 11
-29.15
 20
28.636
 21
28.522
  0
LINE
  8
0
 10
-29.15
 11
-29.363
 20
28.522
 21
28.445
  0
LINE
  8
0
 10
-29.363
 11
-29.585
 20
28.445
 21
28.406
  0
LINE
  8
0
 10
-29.585
 11
-29.812
 20
28.406
 21
28.406
  0
LINE
  8
0
 10
-29.812
 11
-30.034
 20
28.406
 21
28.445
  0
LINE
  8
0
 10
-30.034
 11
-30.247
 20
28.445
 21
28.522
  0
LINE
  8
0
 10
-30.247
 11
-30.443
 20
28.522
 21
28.636
  0
LINE
  8
0
 10
-30.443
 11
-30.616
 20
28.636
 21
28.781
  0
LINE
  8
0
 10
-30.616
 11
-30.761
 20
28.781
 21
28.954
  0
LINE
  8
0
 10
-30.761
 11
-30.875
 20
28.954
 21
29.15
  0
LINE
  8
0
 10
-30.875
 11
-30.952
 20
29.15
 21
29.363
  0
LINE
  8
0
 10
-30.952
 11
-30.991
 20
29.363
 21
29.585
  0
LINE
  8
0
 10
-17
 11
-16.977
 20
0
 21
0.89
  0
LINE
  8
0
 10
-16.977
 11
-16.907
 20
0.89
 21
1.777
  0
LINE
  8
0
 10
-16.907
 11
-16.791
 20
1.777
 21
2.659
  0
LINE
  8
0
 10
-16.791
 11
-16.629
 20
2.659
 21
3.534
  0
LINE
  8
0
 10
-16.629
 11
-16.421
 20
3.534
 21
4.4
  0
LINE
  8
0
 10
-16.421
 11
-16.168
 20
4.4
 21
5.253
  0
LINE
  8
0
 10
-16.168
 11
-15.871
 20
5.253
 21
6.092
  0
LINE
  8
0
 10
-15.871
 11
-15.53
 20
6.092
 21
6.915
  0
LINE
  8
0
 10
-15.53
 11
-15.147
 20
6.915
 21
7.718
  0
LINE
  8
0
 10
-15.147
 11
-14.722
 20
7.718
 21
8.5
  0
LINE
  8
0
 10
-14.722
 11
-14.257
 20
8.5
 21
9.259
  0
LINE
  8
0
 10
-14.257
 11
-13.753
 20
9.259
 21
9.992
  0
LINE
  8
0
 10
-13.753
 11
-13.211
 20
9.992
 21
10.698
  0
LINE
  8
0
 10
-13.211
 11
-12.633
 20
10.698
 21
11.375
  0
LINE
  8
0
 10
-12.633
 11
-12.021
 20
11.375
 21
12.021
  0
LINE
  8
0
 10
-12.021
 11
-11.375
 20
12.021
 21
12.633
  0
LINE
  8
0
 10
-11.375
 11
-10.698
 20
12.633
 21
13.211
  0
LINE
  8
0
 10
-10.698
 11
-9.992
 20
13.211
 21
13.753
  0
LINE
  8
0
 10
-9.992
 11
-9.259
 20
13.753
 21
14.257
  0
LINE
  8
0
 10
-9.259
 11
-8.5
 20
14.257
 21
14.722
  0
LINE
  8
0
 10
-8.5
 11
-7.718
 20
14.722
 21
15.147
  0
LINE
  8
0
 10
-7.718
 11
-6.915
 20
15.147
 21
15.53
  0
LINE
  8
0
 10
-6.915
 11
-6.092
 20
15.53
 21
15.871
  0
LINE
  8
0
 10
-6.092
 11
-5.253
 20
15.871
 21
16.168
  0
LINE
  8
0
 10
-5.253
 11
-4.4
 20
16.168
 21
16.421
  0
LINE
  8
0
 10
-4.4
 11
-3.534
 20
16.421
 21
16.629
  0
LINE
  8
0
 10
-3.534
 11
-2.659
 20
16.629
 21
16.791
  0
LINE
  8
0
 10
-2.659
 11
-1.777
 20
16.791
 21
16.907
  0
LINE
  8
0
 10
-1.777
 11
-0.89
 20
16.907
 21
16.977
  0
LINE
  8
0
 10
-0.89
 11
0
 20
16.977
 21
17
  0
LINE
  8
0
 10
0
 11
0.89
 20
17
 21
16.977
  0
LINE
  8
0
 10
0.89
 11
1.777
 20
16.977
 21
16.907
  0
LINE
  8
0
 10
1.777
 11
2.659
 20
16.907
 21
16.791
  0
LINE
  8
0
 10
2.659
 11
3.534
 20
16.791
 21
16.629
  0
LINE
  8
0
 10
3.534
 11
4.4
 20
16.629
 21
16.421
  0
LINE
  8
0
 10
4.4
 11
5.253
 20
16.421
 21
16.168
  0
LINE
  8
0
 10
5.253
 11
6.092
 20
16.168
 21
15.871
  0
LINE
  8
0
 10
6.092
 11
6.915
 20
15.871
 21
15.53
  0
LINE
  8
0
 10
6.915
 11
7.718
 20
15.53
 21
15.147
  0
LINE
  8
0
 10
7.718
 11
8.5
 20
15.147
 21
14.722
  0
LINE
  8
0
 10
8.5
 11
9.259
 20
14.722
 21
14.257
  0
LINE
  8
0
 10
9.259
 11
9.992
 20
14.257
 21
13.753
  0
LINE
  8
0
 10
9.992
 11
10.698
 20
13.753
 21
13.211
  0
LINE
  8
0
 10
10.698
 11
11.375
 20
13.211
 21
12.633
  0
LINE
  8
0
 10
11.375
 11
12.021
 20
12.633
 21
12.021
  0
LINE
  8
0
 10
12.021
 11
12.633
 20
12.021
 21
11.375
  0
LINE
  8
0
 10
12.633
 11
13.211
 20
11.375
 21
10.698
  0
LINE
  8
0
 10
13.211
 11
13.753
 20
10.698
 21
9.992
  0
LINE
  8
0
 10
13.753
 11
14.257
 20
9.992
 21
9.259
  0
LINE
  8
0
 10
14.257
 11
14.722
 20
9.259
 21
8.5
  0
LINE
  8
0
 10
14.722
 11
15.147
 20
8.5
 21
7.718
  0
LINE
  8
0
 10
15.147
 11
15.53
 20
7.718
 21
6.915
  0
LINE
  8
0
 10
15.53
 11
15.871
 20
6.915
 21
6.092
  0
LINE
  8
0
 10
15.871
 11
16.168
 20
6.092
 21
5.253
  0
LINE
  8
0
 10
16.168
 11
16.421
 20
5.253
 21
4.4
  0
LINE
  8
0
 10
16.421
 11
16.629
 20
4.4
 21
3.534
  0
LINE
  8
0
 10
16.629
 11
16.791
 20
3.534
 21
2.659
  0
LINE
  8
0
 10
16.791
 11
16.907
 20
2.659
 21
1.777
  0
LINE
  8
0
 10
16.907
 11
16.977
 20
1.777
 21
0.89
  0
LINE
  8
0
 10
16.977
 11
17
 20
0.89
 21
0
  0
LINE
  8
0
 10
17
 11
16.977
 20
0
 21
-0.89
  0
LINE
  8
0
 10
16.977
 11
16.907
 20
-0.89
 21
-1.777
  0
LINE
  8
0
 10
16.907
 11
16.791
 20
-1.777
 21
-2.659
  0
LINE
  8
0
 10
16.791
 11
16.629
 20
-2.659
 21
-3.534
  0
LINE
  8
0
 10
16.629
 11
16.421
 20
-3.534
 21
-4.4
  0
LINE
  8
0
 10
16.421
 11
16.168
 20
-4.4
 21
-5.253
  0
LINE
  8
0
 10
16.168
 11
15.871
 20
-5.253
 21
-6.092
  0
LINE
  8
0
 10
15.871
 11
15.53
 20
-6.092
 21
-6.915
  0
LINE
  8
0
 10
15.53
 11
15.147
 20
-6.915
 21
-7.718
  0
LINE
  8
0
 10
15.147
 11
14.722
 20
-7.718
 21
-8.5
  0
LINE
  8
0
 10
14.722
 11
14.257
 20
-8.5
 21
-9.259
  0
LINE
  8
0
 10
14.257
 11
13.753
 20
-9.259
 21
-9.992
  0
LINE
  8
0
 10
13.753
 11
13.211
 20
-9.992
 21
-10.698
  0
LINE
  8
0
 10
13.211
 11
12.633
 20
-10.698
 21
-11.375
  0
LINE
  8
0
 10
12.633
 11
12.021
 20
-11.375
 21
-12.021
  0
LINE
  8
0
 10
12.021
 11
11.375
 20
-12.021
 21
-12.633
  0
LINE
  8
0
 10
11.375
 11
10.698
 20
-12.633
 21
-13.211
  0
LINE
  8
0
 10
10.698
 11
9.992
 20
-13.211
 21
-13.753
  0
LINE
  8
0
 10
9.992
 11
9.259
 20
-13.753
 21
-14.257
  0
LINE
  8
0
 10
9.259
 11
8.5
 20
-14.257
 21
-14.722
  0
LINE
  8
0
 10
8.5
 11
7.718
 20
-14.722
 21
-15.147
  0
LINE
  8
0
 10
7.718
 11
6.915
 20
-15.147
 21
-15.53
  0
LINE
  8
0
 10
6.915
 11
6.092
 20
-15.53
 21
-15.871
  0
LINE
  8
0
 10
6.092
 11
5.253
 20
-15.871
 21
-16.168
  0
LINE
  8
0
 10
5.253
 11
4.4
 20
-16.168
 21
-16.421
  0
LINE
  8
0
 10
4.4
 11
3.534
 20
-16.421
 21
-16.629
  0
LINE
  8
0
 10
3.534
 11
2.659
 20
-16.629
 21
-16.791
  0
LINE
  8
0
 10
2.659
 11
1.777
 20
-16.791
 21
-16.907
  0
LINE
  8
0
 10
1.777
 11
0.89
 20
-16.907
 21
-16.977
  0
LINE
  8
0
 10
0.89
 11
0
 20
-16.977
 21
-17
  0
LINE
  8
0
 10
0
 11
-0.89
 20
-17
 21
-16.977
  0
LINE
  8
0
 10
-0.89
 11
-1.777
 20
-16.977
 21
-16.907
  0
LINE
  8
0
 10
-1.777
 11
-2.659
 20
-16.907
 21
-16.791
  0
LINE
  8
0
 10
-2.659
 11
-3.534
 20
-16.791
 21
-16.629
  0
LINE
  8
0
 10
-3.534
 11
-4.4
 20
-16.629
 21
-16.421
  0
LINE
  8
0
 10
-4.4
 11
-5.253
 20
-16.421
 21
-16.168
  0
LINE
  8
0
 10
-5.253
 11
-6.092
 20
-16.168
 21
-15.871
  0
LINE
  8
0
 10
-6.092
 11
-6.915
 20
-15.871
 21
-15.53
  0
LINE
  8
0
 10
-6.915
 11
-7.718
 20
-15.53
 21
-15.147
  0
LINE
  8
0
 10
-7.718
 11
-8.5
 20
-15.147
 21
-14.722
  0
LINE
  8
0
 10
-8.5
 11
-9.259
 20
-14.722
 21
-14.257
  0
LINE
  8
0
 10
-9.259
 11
-9.992
 20
-14.257
 21
-13.753
  0
LINE
  8
0
 10
-9.992
 11
-10.698
 20
-13.753
 21
-13.211
  0
LINE
  8
0
 10
-10.698
 11
-11.375
 20
-13.211
 21
-12.633
  0
LINE
  8
0
 10
-11.375
 11
-12.021
 20
-12.633
 21
-12.021
  0
LINE
  8
0
 10
-12.021
 11
-12.633
 20
-12.021
 21
-11.375
  0
LINE
  8
0
 10
-12.633
 11
-13.211
 20
-11.375
 21
-10.698
  0
LINE
  8
0
 10
-13.211
 11
-13.753
 20
-10.698
 21
-9.992
  0
LINE
  8
0
 10
-13.753
 11
-14.257
 20
-9.992
 21
-9.259
  0
LINE
  8
0
 10
-14.257
 11
-14.722
 20
-9.259
 21
-8.5
  0
LINE
  8
0
 10
-14.722
 11
-15.147
 20
-8.5
 21
-7.718
  0
LINE
  8
0
 10
-15.147
 11
-15.53
 20
-7.718
 21
-6.915
  0
LINE
  8
0
 10
-15.53
 11
-15.871
 20
-6.915
 21
-6.092
  0
LINE
  8
0
 10
-15.871
 11
-16.168
 20
-6.092
 21
-5.253
  0
LINE
  8
0
 10
-16.168
 11
-16.421
 20
-5.253
 21
-4.4
  0
LINE
  8
0
 10
-16.421
 11
-16.629
 20
-4.4
 21
-3.534
  0
LINE
  8
0
 10
-16.629
 11
-16.791
 20
-3.534
 21
-2.659
  0
LINE
  8
0
 10
-16.791
 11
-16.907
 20
-2.659
 21
-1.777
  0
LINE
  8
0
 10
-16.907
 11
-16.977
 20
-1.777
 21
-0.89
  0
LINE
  8
0
 10
-16.977
 11
-17
 20
-0.89
 21
0
  0
LINE
  8
0
 10
-9.936
 11
-9.936
 20
-39.393
 21
-36.521
  0
LINE
  8
0
 10
-9.936
 11
-8.464
 20
-36.521
 21
-36.521
  0
LINE
  8
0
 10
-8.464
 11
-8.464
 20
-36.521
 21
-39.393
  0
LINE
  8
0
 10
-8.464
 11
-9.936
 20
-39.393
 21
-39.393
  0
LINE
  8
0
 10
-9.936
 11
-9.936
 20
-20.936
 21
-18.064
  0
LINE
  8
0
 10
-9.936
 11
-8.464
 20
-18.064
 21
-18.064
  0
LINE
  8
0
 10
-8.464
 11
-8.464
 20
-18.064
 21
-20.936
  0
LINE
  8
0
 10
-8.464
 11
-9.936
 20
-20.936
 21
-20.936
  0
LINE
  8
0
 10
8.464
 11
8.464
 20
-39.393
 21
-36.521
  0
LINE
  8
0
 10
8.464
 11
9.936
 20
-36.521
 21
-36.521
  0
LINE
  8
0
 10
9.936
 11
9.936
 20
-36.521
 21
-39.393
  0
LINE
  8
0
 10
9.936
 11
8.464
 20
-39.393
 21
-39.393
  0
LINE
  8
0
 10
8.464
 11
8.464
 20
-20.936
 21
-18.064
  0
LINE
  8
0
 10
8.464
 11
9.936
 20
-18.064
 21
-18.064
  0
LINE
  8
0
 10
9.936
 11
9.936
 20
-18.064
 21
-20.936
  0
LINE
  8
0
 10
9.936
 11
8.464
 20
-20.936
 21
-20.936
  0
LINE
  8
0
 10
28.406
 11
28.406
 20
-29.812
 21
-29.585
  0
LINE
  8
0
 10
28.406
 11
28.445
 20
-29.585
 21
-29.363
  0
LINE
  8
0
 10
28.445
 11
28.522
 20
-29.363
 21
-29.15
  0
LINE
  8
0
 10
28.522
 11
28.636
 20
-29.15
 21
-28.954
  0
LINE
  8
0
 10
28.636
 11
28.781
 20
-28.954
 21
-28.781
  0
LINE
  8
0
 10
28.781
 11
28.954
 20
-28.781
 21
-28.636
  0
LINE
  8
0
 10
28.954
 11
29.15
 20
-28.636
 21
-28.522
  0
LINE
  8
0
 10
29.15
 11
29.363
 20
-28.522
 21
-28.445
  0
LINE
  8
0
 10
29.363
 11
29.585
 20
-28.445
 21
-28.406
  0
LINE
  8
0
 10
29.585
 11
29.812
 20
-28.406
 21
-28.406
  0
LINE
  8
0
 10
29.812
 11
30.034
 20
-28.406
 21
-28.445
  0
LINE
  8
0
 10
30.034
 11
30.247
 20
-28.445
 21
-28.522
  0
LINE
  8
0
 10
30.247
 11
30.443
 20
-28.522
 21
-28.636
  0
LINE
  8
0
 10
30.443
 11
30.616
 20
-28.636
 21
-28.781
  0
LINE
  8
0
 10
30.616
 11
30.761
 20
-28.781
 21
-28.954
  0
LINE
  8
0
 10
30.761
 11
30.875
 20
-28.954
 21
-29.15
  0
LINE
  8
0
 10
30.875
 11
30.952
 20
-29.15
 21
-29.363
  0
LINE
  8
0
 10
30.952
 11
30.991
 20
-29.363
 21
-29.585
  0
LINE
  8
0
 10
30.991
 11
30.991
 20
-29.585
 21
-29.812
  0
LINE
  8
0
 10
30.991
 11
30.952
 20
-29.812
 21
-30.034
  0
LINE
  8
0
 10
30.952
 11
30.875
 20
-30.034
 21
-30.247
  0
LINE
  8
0
 10
30.875
 11
30.761
 20
-30.247
 21
-30.443
  0
LINE
  8
0
 10
30.761
 11
30.616
 20
-30.443
 21
-30.616
  0
LINE
  8
0
 10
30.616
 11
30.443
 20
-30.616
 21
-30.761
  0
LINE
  8
0
 10
30.443
 11
30.247
 20
-30.761
 21
-30.875
  0
LINE
  8
0
 10
30.247
 11
30.034
 20
-30.875
 21
-30.952
  0
LINE
  8
0
 10
30.034
 11
29.812
 20
-30.952
 21
-30.991
  0
LINE
  8
0
 10
29.812
 11
29.585
 20
-30.991
 21
-30.991
  0
LINE
  8
0
 10
29.585
 11
29.363
 20
-30.991
 21
-30.952
  0
LINE
  8
0
 10
29.363
 11
29.15
 20
-30.952
 21
-30.875
  0
LINE
  8
0
 10
29.15
 11
28.954
 20
-30.875
 21
-30.761
  0
LINE
  8
0
 10
28.954
 11
28.781
 20
-30.761
 21
-30.616
  0
LINE
  8
0
 10
28.781
 11
28.636
 20
-30.616
 21
-30.443
  0
LINE
  8
0
 10
28.636
 11
28.522
 20
-30.443
 21
-30.247
  0
LINE
  8
0
 10
28.522
 11
28.445
 20
-30.247
 21
-30.034
  0
LINE
  8
0
 10
28.445
 11
28.406
 20
-30.034
 21
-29.812
  0
LINE
  8
0
 10
28.406
 11
28.406
 20
29.585
 21
29.812
  0
LINE
  8
0
 10
28.406
 11
28.445
 20
29.812
 21
30.034
  0
LINE
  8
0
 10
28.445
 11
28.522
 20
30.034
 21
30.247
  0
LINE
  8
0
 10
28.522
 11
28.636
 20
30.247
 21
30.443
  0
LINE
  8
0
 10
28.636
 11
28.781
 20
30.443
 21
30.616
  0
LINE
  8
0
 10
28.781
 11
28.954
 20
30.616
 21
30.761
  0
LINE
  8
0
 10
28.954
 11
29.15
 20
30.761
 21
30.875
  0
LINE
  8
0
 10
29.15
 11
29.363
 20
30.875
 21
30.952
  0
LINE
  8
0
 10
29.363
 11
29.585
 20
30.952
 21
30.991
  0
LINE
  8
0
 10
29.585
 11
29.812
 20
30.991
 21
30.991
  0
LINE
  8
0
 10
29.812
 11
30.034
 20
30.991
 21
30.952
  0
LINE
  8
0
 10
30.034
 11
30.247
 20
30.952
 21
30.875
  0
LINE
  8
0
 10
30.247
 11
30.443
 20
30.875
 21
30.761
  0
LINE
  8
0
 10
30.443
 11
30.616
 20
30.761
 21
30.616
  0
LINE
  8
0
 10
30.616
 11
30.761
 20
30.616
 21
30.443
  0
LINE
  8
0
 10
30.761
 11
30.875
 20
30.443
 21
30.247
  0
LINE
  8
0
 10
30.875
 11
30.952
 20
30.247
 21
30.034
  0
LINE
  8
0
 10
30.952
 11
30.991
 20
30.034
 21
29.812
  0
LINE
  8
0
 10
30.991
 11
30.991
 20
29.812
 21
29.585
  0
LINE
  8
0
 10
30.991
 11
30.952
 20
29.585
 21
29.363
  0
LINE
  8
0
 10
30.952
 11
30.875
 20
29.363
 21
29.15
  0
LINE
  8
0
 10
30.875
 11
30.761
 20
29.15
 21
28.954
  0
LINE
  8
0
 10
30.761
 11
30.616
 20
28.954
 21
28.781
  0
LINE
  8
0
 10
30.616
 11
30.443
 20
28.781
 21
28.636
  0
LINE
  8
0
 10
30.443
 11
30.247
 20
28.636
 21
28.522
  0
LINE
  8
0
 10
30.247
 11
30.034
 20
28.522
 21
28.445
  0
LINE
  8
0
 10
30.034
 11
29.812
 20
28.445
 21
28.406
  0
LINE
  8
0
 10
29.812
 11
29.585
 20
28.406
 21
28.406
  0
LINE
  8
0
 10
29.585
 11
29.363
 20
28.406
 21
28.445
  0
LINE
  8
0
 10
29.363
 11
29.15
 20
28.445
 21
28.522
  0
LINE
  8
0
 10
29.15
 11
28.954
 20
28.522
 21
28.636
  0
LINE
  8
0
 10
28.954
 11
28.781
 20
28.636
 21
28.781
  0
LINE
  8
0
 10
28.781
 11
28.636
 20
28.781
 21
28.954
  0
LINE
  8
0
 10
28.636
 11
28.522
 20
28.954
 21
29.15
  0
LINE
  8
0
 10
28.522
 11
28.445
 20
29.15
 21
29.363
  0
LINE
  8
0
 10
28.445
 11
28.406
 20
29.363
 21
29.585
  0
ENDSEC
  0
SECTION
  2
OBJECTS
  0
DICTIONARY
  0
ENDSEC
  0
EOF
