  0
SECTION
  2
BLOCKS
  0
ENDSEC
  0
SECTION
  2
ENTITIES
  0
LINE
  8
0
 10
-42
 11
-41.942
 20
0
 21
2.198
  0
LINE
  8
0
 10
-41.942
 11
-41.77
 20
2.198
 21
4.39
  0
LINE
  8
0
 10
-41.77
 11
-41.483
 20
4.39
 21
6.57
  0
LINE
  8
0
 10
-41.483
 11
-41.082
 20
6.57
 21
8.732
  0
LINE
  8
0
 10
-41.082
 11
-40.569
 20
8.732
 21
10.87
  0
LINE
  8
0
 10
-40.569
 11
-35.494
 20
10.87
 21
31.251
  0
LINE
  8
0
 10
-35.494
 11
-35.136
 20
31.251
 21
32.234
  0
LINE
  8
0
 10
-35.136
 11
-34.614
 20
32.234
 21
33.14
  0
LINE
  8
0
 10
-34.614
 11
-33.941
 20
33.14
 21
33.941
  0
LINE
  8
0
 10
-33.941
 11
-33.14
 20
33.941
 21
34.614
  0
LINE
  8
0
 10
-33.14
 11
-32.234
 20
34.614
 21
35.136
  0
LINE
  8
0
 10
-32.234
 11
-31.251
 20
35.136
 21
35.494
  0
LINE
  8
0
 10
-31.251
 11
-10.87
 20
35.494
 21
40.569
  0
LINE
  8
0
 10
-10.87
 11
-8.732
 20
40.569
 21
41.082
  0
LINE
  8
0
 10
-8.732
 11
-6.57
 20
41.082
 21
41.483
  0
LINE
  8
0
 10
-6.57
 11
-4.39
 20
41.483
 21
41.77
  0
LINE
  8
0
 10
-4.39
 11
-2.198
 20
41.77
 21
41.942
  0
LINE
  8
0
 10
-2.198
 11
0
 20
41.942
 21
42
  0
LINE
  8
0
 10
0
 11
2.198
 20
42
 21
41.942
  0
LINE
  8
0
 10
2.198
 11
4.39
 20
41.942
 21
41.77
  0
LINE
  8
0
 10
4.39
 11
6.57
 20
41.77
 21
41.483
  0
LINE
  8
0
 10
6.57
 11
8.732
 20
41.483
 21
41.082
  0
LINE
  8
0
 10
8.732
 11
10.87
 20
41.082
 21
40.569
  0
LINE
  8
0
 10
10.87
 11
31.251
 20
40.569
 21
35.494
  0
LINE
  8
0
 10
31.251
 11
32.234
 20
35.494
 21
35.136
  0
LINE
  8
0
 10
32.234
 11
33.14
 20
35.136
 21
34.614
  0
LINE
  8
0
 10
33.14
 11
33.941
 20
34.614
 21
33.941
  0
LINE
  8
0
 10
33.941
 11
34.614
 20
33.941
 21
33.14
  0
LINE
  8
0
 10
34.614
 11
35.136
 20
33.14
 21
32.234
  0
LINE
  8
0
 10
35.136
 11
35.494
 20
32.234
 21
31.251
  0
LINE
  8
0
 10
35.494
 11
40.569
 20
31.251
 21
10.87
  0
LINE
  8
0
 10
40.569
 11
41.082
 20
10.87
 21
8.732
  0
LINE
  8
0
 10
41.082
 11
41.483
 20
8.732
 21
6.57
  0
LINE
  8
0
 10
41.483
 11
41.77
 20
6.57
 21
4.39
  0
LINE
  8
0
 10
41.77
 11
41.942
 20
4.39
 21
2.198
  0
LINE
  8
0
 10
41.942
 11
42
 20
2.198
 21
0
  0
LINE
  8
0
 10
42
 11
41.942
 20
0
 21
-2.198
  0
LINE
  8
0
 10
41.942
 11
41.77
 20
-2.198
 21
-4.39
  0
LINE
  8
0
 10
41.77
 11
41.483
 20
-4.39
 21
-6.57
  0
LINE
  8
0
 10
41.483
 11
41.082
 20
-6.57
 21
-8.732
  0
LINE
  8
0
 10
41.082
 11
40.569
 20
-8.732
 21
-10.87
  0
LINE
  8
0
 10
40.569
 11
35.494
 20
-10.87
 21
-31.251
  0
LINE
  8
0
 10
35.494
 11
35.136
 20
-31.251
 21
-32.234
  0
LINE
  8
0
 10
35.136
 11
34.614
 20
-32.234
 21
-33.14
  0
LINE
  8
0
 10
34.614
 11
33.941
 20
-33.14
 21
-33.941
  0
LINE
  8
0
 10
33.941
 11
33.14
 20
-33.941
 21
-34.614
  0
LINE
  8
0
 10
33.14
 11
32.234
 20
-34.614
 21
-35.136
  0
LINE
  8
0
 10
32.234
 11
31.251
 20
-35.136
 21
-35.494
  0
LINE
  8
0
 10
31.251
 11
10.87
 20
-35.494
 21
-40.569
  0
LINE
  8
0
 10
10.87
 11
8.732
 20
-40.569
 21
-41.082
  0
LINE
  8
0
 10
8.732
 11
6.57
 20
-41.082
 21
-41.483
  0
LINE
  8
0
 10
6.57
 11
4.39
 20
-41.483
 21
-41.77
  0
LINE
  8
0
 10
4.39
 11
2.198
 20
-41.77
 21
-41.942
  0
LINE
  8
0
 10
2.198
 11
0
 20
-41.942
 21
-42
  0
LINE
  8
0
 10
0
 11
-2.198
 20
-42
 21
-41.942
  0
LINE
  8
0
 10
-2.198
 11
-4.39
 20
-41.942
 21
-41.77
  0
LINE
  8
0
 10
-4.39
 11
-6.57
 20
-41.77
 21
-41.483
  0
LINE
  8
0
 10
-6.57
 11
-8.732
 20
-41.483
 21
-41.082
  0
LINE
  8
0
 10
-8.732
 11
-10.87
 20
-41.082
 21
-40.569
  0
LINE
  8
0
 10
-10.87
 11
-31.251
 20
-40.569
 21
-35.494
  0
LINE
  8
0
 10
-31.251
 11
-32.234
 20
-35.494
 21
-35.136
  0
LINE
  8
0
 10
-32.234
 11
-33.14
 20
-35.136
 21
-34.614
  0
LINE
  8
0
 10
-33.14
 11
-33.941
 20
-34.614
 21
-33.941
  0
LINE
  8
0
 10
-33.941
 11
-34.614
 20
-33.941
 21
-33.14
  0
LINE
  8
0
 10
-34.614
 11
-35.136
 20
-33.14
 21
-32.234
  0
LINE
  8
0
 10
-35.136
 11
-35.494
 20
-32.234
 21
-31.251
  0
LINE
  8
0
 10
-35.494
 11
-40.569
 20
-31.251
 21
-10.87
  0
LINE
  8
0
 10
-40.569
 11
-41.082
 20
-10.87
 21
-8.732
  0
LINE
  8
0
 10
-41.082
 11
-41.483
 20
-8.732
 21
-6.57
  0
LINE
  8
0
 10
-41.483
 11
-41.77
 20
-6.57
 21
-4.39
  0
LINE
  8
0
 10
-41.77
 11
-41.942
 20
-4.39
 21
-2.198
  0
LINE
  8
0
 10
-41.942
 11
-42
 20
-2.198
 21
0
  0
LINE
  8
0
 10
-38.75
 11
-38.697
 20
0
 21
2.028
  0
LINE
  8
0
 10
-38.697
 11
-38.538
 20
2.028
 21
4.05
  0
LINE
  8
0
 10
-38.538
 11
-38.273
 20
4.05
 21
6.062
  0
LINE
  8
0
 10
-38.273
 11
-37.903
 20
6.062
 21
8.057
  0
LINE
  8
0
 10
-37.903
 11
-37.43
 20
8.057
 21
10.029
  0
LINE
  8
0
 10
-37.43
 11
-36.853
 20
10.029
 21
11.974
  0
LINE
  8
0
 10
-36.853
 11
-36.176
 20
11.974
 21
13.887
  0
LINE
  8
0
 10
-36.176
 11
-35.4
 20
13.887
 21
15.761
  0
LINE
  8
0
 10
-35.4
 11
-34.527
 20
15.761
 21
17.592
  0
LINE
  8
0
 10
-34.527
 11
-33.558
 20
17.592
 21
19.375
  0
LINE
  8
0
 10
-33.558
 11
-32.498
 20
19.375
 21
21.105
  0
LINE
  8
0
 10
-32.498
 11
-31.349
 20
21.105
 21
22.777
  0
LINE
  8
0
 10
-31.349
 11
-30.114
 20
22.777
 21
24.386
  0
LINE
  8
0
 10
-30.114
 11
-28.797
 20
24.386
 21
25.929
  0
LINE
  8
0
 10
-28.797
 11
-27.4
 20
25.929
 21
27.4
  0
LINE
  8
0
 10
-27.4
 11
-25.929
 20
27.4
 21
28.797
  0
LINE
  8
0
 10
-25.929
 11
-24.386
 20
28.797
 21
30.114
  0
LINE
  8
0
 10
-24.386
 11
-22.777
 20
30.114
 21
31.349
  0
LINE
  8
0
 10
-22.777
 11
-21.105
 20
31.349
 21
32.498
  0
LINE
  8
0
 10
-21.105
 11
-19.375
 20
32.498
 21
33.558
  0
LINE
  8
0
 10
-19.375
 11
-17.592
 20
33.558
 21
34.527
  0
LINE
  8
0
 10
-17.592
 11
-15.761
 20
34.527
 21
35.4
  0
LINE
  8
0
 10
-15.761
 11
-13.887
 20
35.4
 21
36.176
  0
LINE
  8
0
 10
-13.887
 11
-11.974
 20
36.176
 21
36.853
  0
LINE
  8
0
 10
-11.974
 11
-10.029
 20
36.853
 21
37.43
  0
LINE
  8
0
 10
-10.029
 11
-8.057
 20
37.43
 21
37.903
  0
LINE
  8
0
 10
-8.057
 11
-6.062
 20
37.903
 21
38.273
  0
LINE
  8
0
 10
-6.062
 11
-4.05
 20
38.273
 21
38.538
  0
LINE
  8
0
 10
-4.05
 11
-2.028
 20
38.538
 21
38.697
  0
LINE
  8
0
 10
-2.028
 11
0
 20
38.697
 21
38.75
  0
LINE
  8
0
 10
0
 11
2.028
 20
38.75
 21
38.697
  0
LINE
  8
0
 10
2.028
 11
4.05
 20
38.697
 21
38.538
  0
LINE
  8
0
 10
4.05
 11
6.062
 20
38.538
 21
38.273
  0
LINE
  8
0
 10
6.062
 11
8.057
 20
38.273
 21
37.903
  0
LINE
  8
0
 10
8.057
 11
10.029
 20
37.903
 21
37.43
  0
LINE
  8
0
 10
10.029
 11
11.974
 20
37.43
 21
36.853
  0
LINE
  8
0
 10
11.974
 11
13.887
 20
36.853
 21
36.176
  0
LINE
  8
0
 10
13.887
 11
15.761
 20
36.176
 21
35.4
  0
LINE
  8
0
 10
15.761
 11
17.592
 20
35.4
 21
34.527
  0
LINE
  8
0
 10
17.592
 11
19.375
 20
34.527
 21
33.558
  0
LINE
  8
0
 10
19.375
 11
21.105
 20
33.558
 21
32.498
  0
LINE
  8
0
 10
21.105
 11
22.777
 20
32.498
 21
31.349
  0
LINE
  8
0
 10
22.777
 11
24.386
 20
31.349
 21
30.114
  0
LINE
  8
0
 10
24.386
 11
25.929
 20
30.114
 21
28.797
  0
LINE
  8
0
 10
25.929
 11
27.4
 20
28.797
 21
27.4
  0
LINE
  8
0
 10
27.4
 11
28.797
 20
27.4
 21
25.929
  0
LINE
  8
0
 10
28.797
 11
30.114
 20
25.929
 21
24.386
  0
LINE
  8
0
 10
30.114
 11
31.349
 20
24.386
 21
22.777
  0
LINE
  8
0
 10
31.349
 11
32.498
 20
22.777
 21
21.105
  0
LINE
  8
0
 10
32.498
 11
33.558
 20
21.105
 21
19.375
  0
LINE
  8
0
 10
33.558
 11
34.527
 20
19.375
 21
17.592
  0
LINE
  8
0
 10
34.527
 11
35.4
 20
17.592
 21
15.761
  0
LINE
  8
0
 10
35.4
 11
36.176
 20
15.761
 21
13.887
  0
LINE
  8
0
 10
36.176
 11
36.853
 20
13.887
 21
11.974
  0
LINE
  8
0
 10
36.853
 11
37.43
 20
11.974
 21
10.029
  0
LINE
  8
0
 10
37.43
 11
37.903
 20
10.029
 21
8.057
  0
LINE
  8
0
 10
37.903
 11
38.273
 20
8.057
 21
6.062
  0
LINE
  8
0
 10
38.273
 11
38.538
 20
6.062
 21
4.05
  0
LINE
  8
0
 10
38.538
 11
38.697
 20
4.05
 21
2.028
  0
LINE
  8
0
 10
38.697
 11
38.75
 20
2.028
 21
0
  0
LINE
  8
0
 10
38.75
 11
38.697
 20
0
 21
-2.028
  0
LINE
  8
0
 10
38.697
 11
38.538
 20
-2.028
 21
-4.05
  0
LINE
  8
0
 10
38.538
 11
38.273
 20
-4.05
 21
-6.062
  0
LINE
  8
0
 10
38.273
 11
37.903
 20
-6.062
 21
-8.057
  0
LINE
  8
0
 10
37.903
 11
37.43
 20
-8.057
 21
-10.029
  0
LINE
  8
0
 10
37.43
 11
36.853
 20
-10.029
 21
-11.974
  0
LINE
  8
0
 10
36.853
 11
36.176
 20
-11.974
 21
-13.887
  0
LINE
  8
0
 10
36.176
 11
35.4
 20
-13.887
 21
-15.761
  0
LINE
  8
0
 10
35.4
 11
34.527
 20
-15.761
 21
-17.592
  0
LINE
  8
0
 10
34.527
 11
33.558
 20
-17.592
 21
-19.375
  0
LINE
  8
0
 10
33.558
 11
32.498
 20
-19.375
 21
-21.105
  0
LINE
  8
0
 10
32.498
 11
31.349
 20
-21.105
 21
-22.777
  0
LINE
  8
0
 10
31.349
 11
30.114
 20
-22.777
 21
-24.386
  0
LINE
  8
0
 10
30.114
 11
28.797
 20
-24.386
 21
-25.929
  0
LINE
  8
0
 10
28.797
 11
27.4
 20
-25.929
 21
-27.4
  0
LINE
  8
0
 10
27.4
 11
25.929
 20
-27.4
 21
-28.797
  0
LINE
  8
0
 10
25.929
 11
24.386
 20
-28.797
 21
-30.114
  0
LINE
  8
0
 10
24.386
 11
22.777
 20
-30.114
 21
-31.349
  0
LINE
  8
0
 10
22.777
 11
21.105
 20
-31.349
 21
-32.498
  0
LINE
  8
0
 10
21.105
 11
19.375
 20
-32.498
 21
-33.558
  0
LINE
  8
0
 10
19.375
 11
17.592
 20
-33.558
 21
-34.527
  0
LINE
  8
0
 10
17.592
 11
15.761
 20
-34.527
 21
-35.4
  0
LINE
  8
0
 10
15.761
 11
13.887
 20
-35.4
 21
-36.176
  0
LINE
  8
0
 10
13.887
 11
11.974
 20
-36.176
 21
-36.853
  0
LINE
  8
0
 10
11.974
 11
10.029
 20
-36.853
 21
-37.43
  0
LINE
  8
0
 10
10.029
 11
8.057
 20
-37.43
 21
-37.903
  0
LINE
  8
0
 10
8.057
 11
6.062
 20
-37.903
 21
-38.273
  0
LINE
  8
0
 10
6.062
 11
4.05
 20
-38.273
 21
-38.538
  0
LINE
  8
0
 10
4.05
 11
2.028
 20
-38.538
 21
-38.697
  0
LINE
  8
0
 10
2.028
 11
0
 20
-38.697
 21
-38.75
  0
LINE
  8
0
 10
0
 11
-2.028
 20
-38.75
 21
-38.697
  0
LINE
  8
0
 10
-2.028
 11
-4.05
 20
-38.697
 21
-38.538
  0
LINE
  8
0
 10
-4.05
 11
-6.062
 20
-38.538
 21
-38.273
  0
LINE
  8
0
 10
-6.062
 11
-8.057
 20
-38.273
 21
-37.903
  0
LINE
  8
0
 10
-8.057
 11
-10.029
 20
-37.903
 21
-37.43
  0
LINE
  8
0
 10
-10.029
 11
-11.974
 20
-37.43
 21
-36.853
  0
LINE
  8
0
 10
-11.974
 11
-13.887
 20
-36.853
 21
-36.176
  0
LINE
  8
0
 10
-13.887
 11
-15.761
 20
-36.176
 21
-35.4
  0
LINE
  8
0
 10
-15.761
 11
-17.592
 20
-35.4
 21
-34.527
  0
LINE
  8
0
 10
-17.592
 11
-19.375
 20
-34.527
 21
-33.558
  0
LINE
  8
0
 10
-19.375
 11
-21.105
 20
-33.558
 21
-32.498
  0
LINE
  8
0
 10
-21.105
 11
-22.777
 20
-32.498
 21
-31.349
  0
LINE
  8
0
 10
-22.777
 11
-24.386
 20
-31.349
 21
-30.114
  0
LINE
  8
0
 10
-24.386
 11
-25.929
 20
-30.114
 21
-28.797
  0
LINE
  8
0
 10
-25.929
 11
-27.4
 20
-28.797
 21
-27.4
  0
LINE
  8
0
 10
-27.4
 11
-28.797
 20
-27.4
 21
-25.929
  0
LINE
  8
0
 10
-28.797
 11
-30.114
 20
-25.929
 21
-24.386
  0
LINE
  8
0
 10
-30.114
 11
-31.349
 20
-24.386
 21
-22.777
  0
LINE
  8
0
 10
-31.349
 11
-32.498
 20
-22.777
 21
-21.105
  0
LINE
  8
0
 10
-32.498
 11
-33.558
 20
-21.105
 21
-19.375
  0
LINE
  8
0
 10
-33.558
 11
-34.527
 20
-19.375
 21
-17.592
  0
LINE
  8
0
 10
-34.527
 11
-35.4
 20
-17.592
 21
-15.761
  0
LINE
  8
0
 10
-35.4
 11
-36.176
 20
-15.761
 21
-13.887
  0
LINE
  8
0
 10
-36.176
 11
-36.853
 20
-13.887
 21
-11.974
  0
LINE
  8
0
 10
-36.853
 11
-37.43
 20
-11.974
 21
-10.029
  0
LINE
  8
0
 10
-37.43
 11
-37.903
 20
-10.029
 21
-8.057
  0
LINE
  8
0
 10
-37.903
 11
-38.273
 20
-8.057
 21
-6.062
  0
LINE
  8
0
 10
-38.273
 11
-38.538
 20
-6.062
 21
-4.05
  0
LINE
  8
0
 10
-38.538
 11
-38.697
 20
-4.05
 21
-2.028
  0
LINE
  8
0
 10
-38.697
 11
-38.75
 20
-2.028
 21
0
  0
LINE
  8
0
 10
-31.118
 11
-31.118
 20
-29.823
 21
-29.574
  0
LINE
  8
0
 10
-31.118
 11
-31.075
 20
-29.574
 21
-29.33
  0
LINE
  8
0
 10
-31.075
 11
-30.99
 20
-29.33
 21
-29.096
  0
LINE
  8
0
 10
-30.99
 11
-30.865
 20
-29.096
 21
-28.881
  0
LINE
  8
0
 10
-30.865
 11
-30.706
 20
-28.881
 21
-28.691
  0
LINE
  8
0
 10
-30.706
 11
-30.516
 20
-28.691
 21
-28.532
  0
LINE
  8
0
 10
-30.516
 11
-30.301
 20
-28.532
 21
-28.407
  0
LINE
  8
0
 10
-30.301
 11
-30.067
 20
-28.407
 21
-28.322
  0
LINE
  8
0
 10
-30.067
 11
-29.823
 20
-28.322
 21
-28.279
  0
LINE
  8
0
 10
-29.823
 11
-29.574
 20
-28.279
 21
-28.279
  0
LINE
  8
0
 10
-29.574
 11
-29.33
 20
-28.279
 21
-28.322
  0
LINE
  8
0
 10
-29.33
 11
-29.096
 20
-28.322
 21
-28.407
  0
LINE
  8
0
 10
-29.096
 11
-28.881
 20
-28.407
 21
-28.532
  0
LINE
  8
0
 10
-28.881
 11
-28.691
 20
-28.532
 21
-28.691
  0
LINE
  8
0
 10
-28.691
 11
-28.532
 20
-28.691
 21
-28.881
  0
LINE
  8
0
 10
-28.532
 11
-28.407
 20
-28.881
 21
-29.096
  0
LINE
  8
0
 10
-28.407
 11
-28.322
 20
-29.096
 21
-29.33
  0
LINE
  8
0
 10
-28.322
 11
-28.279
 20
-29.33
 21
-29.574
  0
LINE
  8
0
 10
-28.279
 11
-28.279
 20
-29.574
 21
-29.823
  0
LINE
  8
0
 10
-28.279
 11
-28.322
 20
-29.823
 21
-30.067
  0
LINE
  8
0
 10
-28.322
 11
-28.407
 20
-30.067
 21
-30.301
  0
LINE
  8
0
 10
-28.407
 11
-28.532
 20
-30.301
 21
-30.516
  0
LINE
  8
0
 10
-28.532
 11
-28.691
 20
-30.516
 21
-30.706
  0
LINE
  8
0
 10
-28.691
 11
-28.881
 20
-30.706
 21
-30.865
  0
LINE
  8
0
 10
-28.881
 11
-29.096
 20
-30.865
 21
-30.99
  0
LINE
  8
0
 10
-29.096
 11
-29.33
 20
-30.99
 21
-31.075
  0
LINE
  8
0
 10
-29.33
 11
-29.574
 20
-31.075
 21
-31.118
  0
LINE
  8
0
 10
-29.574
 11
-29.823
 20
-31.118
 21
-31.118
  0
LINE
  8
0
 10
-29.823
 11
-30.067
 20
-31.118
 21
-31.075
  0
LINE
  8
0
 10
-30.067
 11
-30.301
 20
-31.075
 21
-30.99
  0
LINE
  8
0
 10
-30.301
 11
-30.516
 20
-30.99
 21
-30.865
  0
LINE
  8
0
 10
-30.516
 11
-30.706
 20
-30.865
 21
-30.706
  0
LINE
  8
0
 10
-30.706
 11
-30.865
 20
-30.706
 21
-30.516
  0
LINE
  8
0
 10
-30.865
 11
-30.99
 20
-30.516
 21
-30.301
  0
LINE
  8
0
 10
-30.99
 11
-31.075
 20
-30.301
 21
-30.067
  0
LINE
  8
0
 10
-31.075
 11
-31.118
 20
-30.067
 21
-29.823
  0
LINE
  8
0
 10
-31.118
 11
-31.118
 20
29.574
 21
29.823
  0
LINE
  8
0
 10
-31.118
 11
-31.075
 20
29.823
 21
30.067
  0
LINE
  8
0
 10
-31.075
 11
-30.99
 20
30.067
 21
30.301
  0
LINE
  8
0
 10
-30.99
 11
-30.865
 20
30.301
 21
30.516
  0
LINE
  8
0
 10
-30.865
 11
-30.706
 20
30.516
 21
30.706
  0
LINE
  8
0
 10
-30.706
 11
-30.516
 20
30.706
 21
30.865
  0
LINE
  8
0
 10
-30.516
 11
-30.301
 20
30.865
 21
30.99
  0
LINE
  8
0
 10
-30.301
 11
-30.067
 20
30.99
 21
31.075
  0
LINE
  8
0
 10
-30.067
 11
-29.823
 20
31.075
 21
31.118
  0
LINE
  8
0
 10
-29.823
 11
-29.574
 20
31.118
 21
31.118
  0
LINE
  8
0
 10
-29.574
 11
-29.33
 20
31.118
 21
31.075
  0
LINE
  8
0
 10
-29.33
 11
-29.096
 20
31.075
 21
30.99
  0
LINE
  8
0
 10
-29.096
 11
-28.881
 20
30.99
 21
30.865
  0
LINE
  8
0
 10
-28.881
 11
-28.691
 20
30.865
 21
30.706
  0
LINE
  8
0
 10
-28.691
 11
-28.532
 20
30.706
 21
30.516
  0
LINE
  8
0
 10
-28.532
 11
-28.407
 20
30.516
 21
30.301
  0
LINE
  8
0
 10
-28.407
 11
-28.322
 20
30.301
 21
30.067
  0
LINE
  8
0
 10
-28.322
 11
-28.279
 20
30.067
 21
29.823
  0
LINE
  8
0
 10
-28.279
 11
-28.279
 20
29.823
 21
29.574
  0
LINE
  8
0
 10
-28.279
 11
-28.322
 20
29.574
 21
29.33
  0
LINE
  8
0
 10
-28.322
 11
-28.407
 20
29.33
 21
29.096
  0
LINE
  8
0
 10
-28.407
 11
-28.532
 20
29.096
 21
28.881
  0
LINE
  8
0
 10
-28.532
 11
-28.691
 20
28.881
 21
28.691
  0
LINE
  8
0
 10
-28.691
 11
-28.881
 20
28.691
 21
28.532
  0
LINE
  8
0
 10
-28.881
 11
-29.096
 20
28.532
 21
28.407
  0
LINE
  8
0
 10
-29.096
 11
-29.33
 20
28.407
 21
28.322
  0
LINE
  8
0
 10
-29.33
 11
-29.574
 20
28.322
 21
28.279
  0
LINE
  8
0
 10
-29.574
 11
-29.823
 20
28.279
 21
28.279
  0
LINE
  8
0
 10
-29.823
 11
-30.067
 20
28.279
 21
28.322
  0
LINE
  8
0
 10
-30.067
 11
-30.301
 20
28.322
 21
28.407
  0
LINE
  8
0
 10
-30.301
 11
-30.516
 20
28.407
 21
28.532
  0
LINE
  8
0
 10
-30.516
 11
-30.706
 20
28.532
 21
28.691
  0
LINE
  8
0
 10
-30.706
 11
-30.865
 20
28.691
 21
28.881
  0
LINE
  8
0
 10
-30.865
 11
-30.99
 20
28.881
 21
29.096
  0
LINE
  8
0
 10
-30.99
 11
-31.075
 20
29.096
 21
29.33
  0
LINE
  8
0
 10
-31.075
 11
-31.118
 20
29.33
 21
29.574
  0
LINE
  8
0
 10
28.279
 11
28.279
 20
-29.823
 21
-29.574
  0
LINE
  8
0
 10
28.279
 11
28.322
 20
-29.574
 21
-29.33
  0
LINE
  8
0
 10
28.322
 11
28.407
 20
-29.33
 21
-29.096
  0
LINE
  8
0
 10
28.407
 11
28.532
 20
-29.096
 21
-28.881
  0
LINE
  8
0
 10
28.532
 11
28.691
 20
-28.881
 21
-28.691
  0
LINE
  8
0
 10
28.691
 11
28.881
 20
-28.691
 21
-28.532
  0
LINE
  8
0
 10
28.881
 11
29.096
 20
-28.532
 21
-28.407
  0
LINE
  8
0
 10
29.096
 11
29.33
 20
-28.407
 21
-28.322
  0
LINE
  8
0
 10
29.33
 11
29.574
 20
-28.322
 21
-28.279
  0
LINE
  8
0
 10
29.574
 11
29.823
 20
-28.279
 21
-28.279
  0
LINE
  8
0
 10
29.823
 11
30.067
 20
-28.279
 21
-28.322
  0
LINE
  8
0
 10
30.067
 11
30.301
 20
-28.322
 21
-28.407
  0
LINE
  8
0
 10
30.301
 11
30.516
 20
-28.407
 21
-28.532
  0
LINE
  8
0
 10
30.516
 11
30.706
 20
-28.532
 21
-28.691
  0
LINE
  8
0
 10
30.706
 11
30.865
 20
-28.691
 21
-28.881
  0
LINE
  8
0
 10
30.865
 11
30.99
 20
-28.881
 21
-29.096
  0
LINE
  8
0
 10
30.99
 11
31.075
 20
-29.096
 21
-29.33
  0
LINE
  8
0
 10
31.075
 11
31.118
 20
-29.33
 21
-29.574
  0
LINE
  8
0
 10
31.118
 11
31.118
 20
-29.574
 21
-29.823
  0
LINE
  8
0
 10
31.118
 11
31.075
 20
-29.823
 21
-30.067
  0
LINE
  8
0
 10
31.075
 11
30.99
 20
-30.067
 21
-30.301
  0
LINE
  8
0
 10
30.99
 11
30.865
 20
-30.301
 21
-30.516
  0
LINE
  8
0
 10
30.865
 11
30.706
 20
-30.516
 21
-30.706
  0
LINE
  8
0
 10
30.706
 11
30.516
 20
-30.706
 21
-30.865
  0
LINE
  8
0
 10
30.516
 11
30.301
 20
-30.865
 21
-30.99
  0
LINE
  8
0
 10
30.301
 11
30.067
 20
-30.99
 21
-31.075
  0
LINE
  8
0
 10
30.067
 11
29.823
 20
-31.075
 21
-31.118
  0
LINE
  8
0
 10
29.823
 11
29.574
 20
-31.118
 21
-31.118
  0
LINE
  8
0
 10
29.574
 11
29.33
 20
-31.118
 21
-31.075
  0
LINE
  8
0
 10
29.33
 11
29.096
 20
-31.075
 21
-30.99
  0
LINE
  8
0
 10
29.096
 11
28.881
 20
-30.99
 21
-30.865
  0
LINE
  8
0
 10
28.881
 11
28.691
 20
-30.865
 21
-30.706
  0
LINE
  8
0
 10
28.691
 11
28.532
 20
-30.706
 21
-30.516
  0
LINE
  8
0
 10
28.532
 11
28.407
 20
-30.516
 21
-30.301
  0
LINE
  8
0
 10
28.407
 11
28.322
 20
-30.301
 21
-30.067
  0
LINE
  8
0
 10
28.322
 11
28.279
 20
-30.067
 21
-29.823
  0
LINE
  8
0
 10
28.279
 11
28.279
 20
29.574
 21
29.823
  0
LINE
  8
0
 10
28.279
 11
28.322
 20
29.823
 21
30.067
  0
LINE
  8
0
 10
28.322
 11
28.407
 20
30.067
 21
30.301
  0
LINE
  8
0
 10
28.407
 11
28.532
 20
30.301
 21
30.516
  0
LINE
  8
0
 10
28.532
 11
28.691
 20
30.516
 21
30.706
  0
LINE
  8
0
 10
28.691
 11
28.881
 20
30.706
 21
30.865
  0
LINE
  8
0
 10
28.881
 11
29.096
 20
30.865
 21
30.99
  0
LINE
  8
0
 10
29.096
 11
29.33
 20
30.99
 21
31.075
  0
LINE
  8
0
 10
29.33
 11
29.574
 20
31.075
 21
31.118
  0
LINE
  8
0
 10
29.574
 11
29.823
 20
31.118
 21
31.118
  0
LINE
  8
0
 10
29.823
 11
30.067
 20
31.118
 21
31.075
  0
LINE
  8
0
 10
30.067
 11
30.301
 20
31.075
 21
30.99
  0
LINE
  8
0
 10
30.301
 11
30.516
 20
30.99
 21
30.865
  0
LINE
  8
0
 10
30.516
 11
30.706
 20
30.865
 21
30.706
  0
LINE
  8
0
 10
30.706
 11
30.865
 20
30.706
 21
30.516
  0
LINE
  8
0
 10
30.865
 11
30.99
 20
30.516
 21
30.301
  0
LINE
  8
0
 10
30.99
 11
31.075
 20
30.301
 21
30.067
  0
LINE
  8
0
 10
31.075
 11
31.118
 20
30.067
 21
29.823
  0
LINE
  8
0
 10
31.118
 11
31.118
 20
29.823
 21
29.574
  0
LINE
  8
0
 10
31.118
 11
31.075
 20
29.574
 21
29.33
  0
LINE
  8
0
 10
31.075
 11
30.99
 20
29.33
 21
29.096
  0
LINE
  8
0
 10
30.99
 11
30.865
 20
29.096
 21
28.881
  0
LINE
  8
0
 10
30.865
 11
30.706
 20
28.881
 21
28.691
  0
LINE
  8
0
 10
30.706
 11
30.516
 20
28.691
 21
28.532
  0
LINE
  8
0
 10
30.516
 11
30.301
 20
28.532
 21
28.407
  0
LINE
  8
0
 10
30.301
 11
30.067
 20
28.407
 21
28.322
  0
LINE
  8
0
 10
30.067
 11
29.823
 20
28.322
 21
28.279
  0
LINE
  8
0
 10
29.823
 11
29.574
 20
28.279
 21
28.279
  0
LINE
  8
0
 10
29.574
 11
29.33
 20
28.279
 21
28.322
  0
LINE
  8
0
 10
29.33
 11
29.096
 20
28.322
 21
28.407
  0
LINE
  8
0
 10
29.096
 11
28.881
 20
28.407
 21
28.532
  0
LINE
  8
0
 10
28.881
 11
28.691
 20
28.532
 21
28.691
  0
LINE
  8
0
 10
28.691
 11
28.532
 20
28.691
 21
28.881
  0
LINE
  8
0
 10
28.532
 11
28.407
 20
28.881
 21
29.096
  0
LINE
  8
0
 10
28.407
 11
28.322
 20
29.096
 21
29.33
  0
LINE
  8
0
 10
28.322
 11
28.279
 20
29.33
 21
29.574
  0
ENDSEC
  0
SECTION
  2
OBJECTS
  0
DICTIONARY
  0
ENDSEC
  0
EOF
