  0
SECTION
  2
BLOCKS
  0
ENDSEC
  0
SECTION
  2
ENTITIES
  0
LINE
  8
0
 10
-42
 11
-41.942
 20
0
 21
2.198
  0
LINE
  8
0
 10
-41.942
 11
-41.77
 20
2.198
 21
4.39
  0
LINE
  8
0
 10
-41.77
 11
-41.483
 20
4.39
 21
6.57
  0
LINE
  8
0
 10
-41.483
 11
-41.082
 20
6.57
 21
8.732
  0
LINE
  8
0
 10
-41.082
 11
-40.569
 20
8.732
 21
10.87
  0
LINE
  8
0
 10
-40.569
 11
-35.494
 20
10.87
 21
31.251
  0
LINE
  8
0
 10
-35.494
 11
-35.136
 20
31.251
 21
32.234
  0
LINE
  8
0
 10
-35.136
 11
-34.614
 20
32.234
 21
33.14
  0
LINE
  8
0
 10
-34.614
 11
-33.941
 20
33.14
 21
33.941
  0
LINE
  8
0
 10
-33.941
 11
-33.14
 20
33.941
 21
34.614
  0
LINE
  8
0
 10
-33.14
 11
-32.234
 20
34.614
 21
35.136
  0
LINE
  8
0
 10
-32.234
 11
-31.251
 20
35.136
 21
35.494
  0
LINE
  8
0
 10
-31.251
 11
-10.87
 20
35.494
 21
40.569
  0
LINE
  8
0
 10
-10.87
 11
-8.732
 20
40.569
 21
41.082
  0
LINE
  8
0
 10
-8.732
 11
-6.57
 20
41.082
 21
41.483
  0
LINE
  8
0
 10
-6.57
 11
-4.39
 20
41.483
 21
41.77
  0
LINE
  8
0
 10
-4.39
 11
-2.198
 20
41.77
 21
41.942
  0
LINE
  8
0
 10
-2.198
 11
0
 20
41.942
 21
42
  0
LINE
  8
0
 10
0
 11
2.198
 20
42
 21
41.942
  0
LINE
  8
0
 10
2.198
 11
4.39
 20
41.942
 21
41.77
  0
LINE
  8
0
 10
4.39
 11
6.57
 20
41.77
 21
41.483
  0
LINE
  8
0
 10
6.57
 11
8.732
 20
41.483
 21
41.082
  0
LINE
  8
0
 10
8.732
 11
10.87
 20
41.082
 21
40.569
  0
LINE
  8
0
 10
10.87
 11
31.251
 20
40.569
 21
35.494
  0
LINE
  8
0
 10
31.251
 11
32.234
 20
35.494
 21
35.136
  0
LINE
  8
0
 10
32.234
 11
33.14
 20
35.136
 21
34.614
  0
LINE
  8
0
 10
33.14
 11
33.941
 20
34.614
 21
33.941
  0
LINE
  8
0
 10
33.941
 11
34.614
 20
33.941
 21
33.14
  0
LINE
  8
0
 10
34.614
 11
35.136
 20
33.14
 21
32.234
  0
LINE
  8
0
 10
35.136
 11
35.494
 20
32.234
 21
31.251
  0
LINE
  8
0
 10
35.494
 11
40.569
 20
31.251
 21
10.87
  0
LINE
  8
0
 10
40.569
 11
41.082
 20
10.87
 21
8.732
  0
LINE
  8
0
 10
41.082
 11
41.483
 20
8.732
 21
6.57
  0
LINE
  8
0
 10
41.483
 11
41.77
 20
6.57
 21
4.39
  0
LINE
  8
0
 10
41.77
 11
41.942
 20
4.39
 21
2.198
  0
LINE
  8
0
 10
41.942
 11
42
 20
2.198
 21
0
  0
LINE
  8
0
 10
42
 11
41.942
 20
0
 21
-2.198
  0
LINE
  8
0
 10
41.942
 11
41.77
 20
-2.198
 21
-4.39
  0
LINE
  8
0
 10
41.77
 11
41.483
 20
-4.39
 21
-6.57
  0
LINE
  8
0
 10
41.483
 11
41.082
 20
-6.57
 21
-8.732
  0
LINE
  8
0
 10
41.082
 11
40.569
 20
-8.732
 21
-10.87
  0
LINE
  8
0
 10
40.569
 11
35.494
 20
-10.87
 21
-31.251
  0
LINE
  8
0
 10
35.494
 11
35.136
 20
-31.251
 21
-32.234
  0
LINE
  8
0
 10
35.136
 11
34.614
 20
-32.234
 21
-33.14
  0
LINE
  8
0
 10
34.614
 11
33.941
 20
-33.14
 21
-33.941
  0
LINE
  8
0
 10
33.941
 11
33.14
 20
-33.941
 21
-34.614
  0
LINE
  8
0
 10
33.14
 11
32.234
 20
-34.614
 21
-35.136
  0
LINE
  8
0
 10
32.234
 11
31.251
 20
-35.136
 21
-35.494
  0
LINE
  8
0
 10
31.251
 11
10.87
 20
-35.494
 21
-40.569
  0
LINE
  8
0
 10
10.87
 11
8.732
 20
-40.569
 21
-41.082
  0
LINE
  8
0
 10
8.732
 11
6.57
 20
-41.082
 21
-41.483
  0
LINE
  8
0
 10
6.57
 11
4.39
 20
-41.483
 21
-41.77
  0
LINE
  8
0
 10
4.39
 11
2.198
 20
-41.77
 21
-41.942
  0
LINE
  8
0
 10
2.198
 11
0
 20
-41.942
 21
-42
  0
LINE
  8
0
 10
0
 11
-2.198
 20
-42
 21
-41.942
  0
LINE
  8
0
 10
-2.198
 11
-4.39
 20
-41.942
 21
-41.77
  0
LINE
  8
0
 10
-4.39
 11
-6.57
 20
-41.77
 21
-41.483
  0
LINE
  8
0
 10
-6.57
 11
-8.732
 20
-41.483
 21
-41.082
  0
LINE
  8
0
 10
-8.732
 11
-10.87
 20
-41.082
 21
-40.569
  0
LINE
  8
0
 10
-10.87
 11
-31.251
 20
-40.569
 21
-35.494
  0
LINE
  8
0
 10
-31.251
 11
-32.234
 20
-35.494
 21
-35.136
  0
LINE
  8
0
 10
-32.234
 11
-33.14
 20
-35.136
 21
-34.614
  0
LINE
  8
0
 10
-33.14
 11
-33.941
 20
-34.614
 21
-33.941
  0
LINE
  8
0
 10
-33.941
 11
-34.614
 20
-33.941
 21
-33.14
  0
LINE
  8
0
 10
-34.614
 11
-35.136
 20
-33.14
 21
-32.234
  0
LINE
  8
0
 10
-35.136
 11
-35.494
 20
-32.234
 21
-31.251
  0
LINE
  8
0
 10
-35.494
 11
-40.569
 20
-31.251
 21
-10.87
  0
LINE
  8
0
 10
-40.569
 11
-41.082
 20
-10.87
 21
-8.732
  0
LINE
  8
0
 10
-41.082
 11
-41.483
 20
-8.732
 21
-6.57
  0
LINE
  8
0
 10
-41.483
 11
-41.77
 20
-6.57
 21
-4.39
  0
LINE
  8
0
 10
-41.77
 11
-41.942
 20
-4.39
 21
-2.198
  0
LINE
  8
0
 10
-41.942
 11
-42
 20
-2.198
 21
0
  0
LINE
  8
0
 10
-32.289
 11
-32.289
 20
-29.925
 21
-29.472
  0
LINE
  8
0
 10
-32.289
 11
-32.21
 20
-29.472
 21
-29.025
  0
LINE
  8
0
 10
-32.21
 11
-32.055
 20
-29.025
 21
-28.6
  0
LINE
  8
0
 10
-32.055
 11
-31.828
 20
-28.6
 21
-28.207
  0
LINE
  8
0
 10
-31.828
 11
-31.537
 20
-28.207
 21
-27.86
  0
LINE
  8
0
 10
-31.537
 11
-31.19
 20
-27.86
 21
-27.569
  0
LINE
  8
0
 10
-31.19
 11
-30.797
 20
-27.569
 21
-27.342
  0
LINE
  8
0
 10
-30.797
 11
-30.372
 20
-27.342
 21
-27.187
  0
LINE
  8
0
 10
-30.372
 11
-29.925
 20
-27.187
 21
-27.108
  0
LINE
  8
0
 10
-29.925
 11
-29.472
 20
-27.108
 21
-27.108
  0
LINE
  8
0
 10
-29.472
 11
-29.025
 20
-27.108
 21
-27.187
  0
LINE
  8
0
 10
-29.025
 11
-28.6
 20
-27.187
 21
-27.342
  0
LINE
  8
0
 10
-28.6
 11
-28.207
 20
-27.342
 21
-27.569
  0
LINE
  8
0
 10
-28.207
 11
-27.86
 20
-27.569
 21
-27.86
  0
LINE
  8
0
 10
-27.86
 11
-27.569
 20
-27.86
 21
-28.207
  0
LINE
  8
0
 10
-27.569
 11
-27.342
 20
-28.207
 21
-28.6
  0
LINE
  8
0
 10
-27.342
 11
-27.187
 20
-28.6
 21
-29.025
  0
LINE
  8
0
 10
-27.187
 11
-27.108
 20
-29.025
 21
-29.472
  0
LINE
  8
0
 10
-27.108
 11
-27.108
 20
-29.472
 21
-29.925
  0
LINE
  8
0
 10
-27.108
 11
-27.187
 20
-29.925
 21
-30.372
  0
LINE
  8
0
 10
-27.187
 11
-27.342
 20
-30.372
 21
-30.797
  0
LINE
  8
0
 10
-27.342
 11
-27.569
 20
-30.797
 21
-31.19
  0
LINE
  8
0
 10
-27.569
 11
-27.86
 20
-31.19
 21
-31.537
  0
LINE
  8
0
 10
-27.86
 11
-28.207
 20
-31.537
 21
-31.828
  0
LINE
  8
0
 10
-28.207
 11
-28.6
 20
-31.828
 21
-32.055
  0
LINE
  8
0
 10
-28.6
 11
-29.025
 20
-32.055
 21
-32.21
  0
LINE
  8
0
 10
-29.025
 11
-29.472
 20
-32.21
 21
-32.289
  0
LINE
  8
0
 10
-29.472
 11
-29.925
 20
-32.289
 21
-32.289
  0
LINE
  8
0
 10
-29.925
 11
-30.372
 20
-32.289
 21
-32.21
  0
LINE
  8
0
 10
-30.372
 11
-30.797
 20
-32.21
 21
-32.055
  0
LINE
  8
0
 10
-30.797
 11
-31.19
 20
-32.055
 21
-31.828
  0
LINE
  8
0
 10
-31.19
 11
-31.537
 20
-31.828
 21
-31.537
  0
LINE
  8
0
 10
-31.537
 11
-31.828
 20
-31.537
 21
-31.19
  0
LINE
  8
0
 10
-31.828
 11
-32.055
 20
-31.19
 21
-30.797
  0
LINE
  8
0
 10
-32.055
 11
-32.21
 20
-30.797
 21
-30.372
  0
LINE
  8
0
 10
-32.21
 11
-32.289
 20
-30.372
 21
-29.925
  0
LINE
  8
0
 10
-32.289
 11
-32.289
 20
29.472
 21
29.925
  0
LINE
  8
0
 10
-32.289
 11
-32.21
 20
29.925
 21
30.372
  0
LINE
  8
0
 10
-32.21
 11
-32.055
 20
30.372
 21
30.797
  0
LINE
  8
0
 10
-32.055
 11
-31.828
 20
30.797
 21
31.19
  0
LINE
  8
0
 10
-31.828
 11
-31.537
 20
31.19
 21
31.537
  0
LINE
  8
0
 10
-31.537
 11
-31.19
 20
31.537
 21
31.828
  0
LINE
  8
0
 10
-31.19
 11
-30.797
 20
31.828
 21
32.055
  0
LINE
  8
0
 10
-30.797
 11
-30.372
 20
32.055
 21
32.21
  0
LINE
  8
0
 10
-30.372
 11
-29.925
 20
32.21
 21
32.289
  0
LINE
  8
0
 10
-29.925
 11
-29.472
 20
32.289
 21
32.289
  0
LINE
  8
0
 10
-29.472
 11
-29.025
 20
32.289
 21
32.21
  0
LINE
  8
0
 10
-29.025
 11
-28.6
 20
32.21
 21
32.055
  0
LINE
  8
0
 10
-28.6
 11
-28.207
 20
32.055
 21
31.828
  0
LINE
  8
0
 10
-28.207
 11
-27.86
 20
31.828
 21
31.537
  0
LINE
  8
0
 10
-27.86
 11
-27.569
 20
31.537
 21
31.19
  0
LINE
  8
0
 10
-27.569
 11
-27.342
 20
31.19
 21
30.797
  0
LINE
  8
0
 10
-27.342
 11
-27.187
 20
30.797
 21
30.372
  0
LINE
  8
0
 10
-27.187
 11
-27.108
 20
30.372
 21
29.925
  0
LINE
  8
0
 10
-27.108
 11
-27.108
 20
29.925
 21
29.472
  0
LINE
  8
0
 10
-27.108
 11
-27.187
 20
29.472
 21
29.025
  0
LINE
  8
0
 10
-27.187
 11
-27.342
 20
29.025
 21
28.6
  0
LINE
  8
0
 10
-27.342
 11
-27.569
 20
28.6
 21
28.207
  0
LINE
  8
0
 10
-27.569
 11
-27.86
 20
28.207
 21
27.86
  0
LINE
  8
0
 10
-27.86
 11
-28.207
 20
27.86
 21
27.569
  0
LINE
  8
0
 10
-28.207
 11
-28.6
 20
27.569
 21
27.342
  0
LINE
  8
0
 10
-28.6
 11
-29.025
 20
27.342
 21
27.187
  0
LINE
  8
0
 10
-29.025
 11
-29.472
 20
27.187
 21
27.108
  0
LINE
  8
0
 10
-29.472
 11
-29.925
 20
27.108
 21
27.108
  0
LINE
  8
0
 10
-29.925
 11
-30.372
 20
27.108
 21
27.187
  0
LINE
  8
0
 10
-30.372
 11
-30.797
 20
27.187
 21
27.342
  0
LINE
  8
0
 10
-30.797
 11
-31.19
 20
27.342
 21
27.569
  0
LINE
  8
0
 10
-31.19
 11
-31.537
 20
27.569
 21
27.86
  0
LINE
  8
0
 10
-31.537
 11
-31.828
 20
27.86
 21
28.207
  0
LINE
  8
0
 10
-31.828
 11
-32.055
 20
28.207
 21
28.6
  0
LINE
  8
0
 10
-32.055
 11
-32.21
 20
28.6
 21
29.025
  0
LINE
  8
0
 10
-32.21
 11
-32.289
 20
29.025
 21
29.472
  0
LINE
  8
0
 10
27.108
 11
27.108
 20
-29.925
 21
-29.472
  0
LINE
  8
0
 10
27.108
 11
27.187
 20
-29.472
 21
-29.025
  0
LINE
  8
0
 10
27.187
 11
27.342
 20
-29.025
 21
-28.6
  0
LINE
  8
0
 10
27.342
 11
27.569
 20
-28.6
 21
-28.207
  0
LINE
  8
0
 10
27.569
 11
27.86
 20
-28.207
 21
-27.86
  0
LINE
  8
0
 10
27.86
 11
28.207
 20
-27.86
 21
-27.569
  0
LINE
  8
0
 10
28.207
 11
28.6
 20
-27.569
 21
-27.342
  0
LINE
  8
0
 10
28.6
 11
29.025
 20
-27.342
 21
-27.187
  0
LINE
  8
0
 10
29.025
 11
29.472
 20
-27.187
 21
-27.108
  0
LINE
  8
0
 10
29.472
 11
29.925
 20
-27.108
 21
-27.108
  0
LINE
  8
0
 10
29.925
 11
30.372
 20
-27.108
 21
-27.187
  0
LINE
  8
0
 10
30.372
 11
30.797
 20
-27.187
 21
-27.342
  0
LINE
  8
0
 10
30.797
 11
31.19
 20
-27.342
 21
-27.569
  0
LINE
  8
0
 10
31.19
 11
31.537
 20
-27.569
 21
-27.86
  0
LINE
  8
0
 10
31.537
 11
31.828
 20
-27.86
 21
-28.207
  0
LINE
  8
0
 10
31.828
 11
32.055
 20
-28.207
 21
-28.6
  0
LINE
  8
0
 10
32.055
 11
32.21
 20
-28.6
 21
-29.025
  0
LINE
  8
0
 10
32.21
 11
32.289
 20
-29.025
 21
-29.472
  0
LINE
  8
0
 10
32.289
 11
32.289
 20
-29.472
 21
-29.925
  0
LINE
  8
0
 10
32.289
 11
32.21
 20
-29.925
 21
-30.372
  0
LINE
  8
0
 10
32.21
 11
32.055
 20
-30.372
 21
-30.797
  0
LINE
  8
0
 10
32.055
 11
31.828
 20
-30.797
 21
-31.19
  0
LINE
  8
0
 10
31.828
 11
31.537
 20
-31.19
 21
-31.537
  0
LINE
  8
0
 10
31.537
 11
31.19
 20
-31.537
 21
-31.828
  0
LINE
  8
0
 10
31.19
 11
30.797
 20
-31.828
 21
-32.055
  0
LINE
  8
0
 10
30.797
 11
30.372
 20
-32.055
 21
-32.21
  0
LINE
  8
0
 10
30.372
 11
29.925
 20
-32.21
 21
-32.289
  0
LINE
  8
0
 10
29.925
 11
29.472
 20
-32.289
 21
-32.289
  0
LINE
  8
0
 10
29.472
 11
29.025
 20
-32.289
 21
-32.21
  0
LINE
  8
0
 10
29.025
 11
28.6
 20
-32.21
 21
-32.055
  0
LINE
  8
0
 10
28.6
 11
28.207
 20
-32.055
 21
-31.828
  0
LINE
  8
0
 10
28.207
 11
27.86
 20
-31.828
 21
-31.537
  0
LINE
  8
0
 10
27.86
 11
27.569
 20
-31.537
 21
-31.19
  0
LINE
  8
0
 10
27.569
 11
27.342
 20
-31.19
 21
-30.797
  0
LINE
  8
0
 10
27.342
 11
27.187
 20
-30.797
 21
-30.372
  0
LINE
  8
0
 10
27.187
 11
27.108
 20
-30.372
 21
-29.925
  0
LINE
  8
0
 10
27.108
 11
27.108
 20
29.472
 21
29.925
  0
LINE
  8
0
 10
27.108
 11
27.187
 20
29.925
 21
30.372
  0
LINE
  8
0
 10
27.187
 11
27.342
 20
30.372
 21
30.797
  0
LINE
  8
0
 10
27.342
 11
27.569
 20
30.797
 21
31.19
  0
LINE
  8
0
 10
27.569
 11
27.86
 20
31.19
 21
31.537
  0
LINE
  8
0
 10
27.86
 11
28.207
 20
31.537
 21
31.828
  0
LINE
  8
0
 10
28.207
 11
28.6
 20
31.828
 21
32.055
  0
LINE
  8
0
 10
28.6
 11
29.025
 20
32.055
 21
32.21
  0
LINE
  8
0
 10
29.025
 11
29.472
 20
32.21
 21
32.289
  0
LINE
  8
0
 10
29.472
 11
29.925
 20
32.289
 21
32.289
  0
LINE
  8
0
 10
29.925
 11
30.372
 20
32.289
 21
32.21
  0
LINE
  8
0
 10
30.372
 11
30.797
 20
32.21
 21
32.055
  0
LINE
  8
0
 10
30.797
 11
31.19
 20
32.055
 21
31.828
  0
LINE
  8
0
 10
31.19
 11
31.537
 20
31.828
 21
31.537
  0
LINE
  8
0
 10
31.537
 11
31.828
 20
31.537
 21
31.19
  0
LINE
  8
0
 10
31.828
 11
32.055
 20
31.19
 21
30.797
  0
LINE
  8
0
 10
32.055
 11
32.21
 20
30.797
 21
30.372
  0
LINE
  8
0
 10
32.21
 11
32.289
 20
30.372
 21
29.925
  0
LINE
  8
0
 10
32.289
 11
32.289
 20
29.925
 21
29.472
  0
LINE
  8
0
 10
32.289
 11
32.21
 20
29.472
 21
29.025
  0
LINE
  8
0
 10
32.21
 11
32.055
 20
29.025
 21
28.6
  0
LINE
  8
0
 10
32.055
 11
31.828
 20
28.6
 21
28.207
  0
LINE
  8
0
 10
31.828
 11
31.537
 20
28.207
 21
27.86
  0
LINE
  8
0
 10
31.537
 11
31.19
 20
27.86
 21
27.569
  0
LINE
  8
0
 10
31.19
 11
30.797
 20
27.569
 21
27.342
  0
LINE
  8
0
 10
30.797
 11
30.372
 20
27.342
 21
27.187
  0
LINE
  8
0
 10
30.372
 11
29.925
 20
27.187
 21
27.108
  0
LINE
  8
0
 10
29.925
 11
29.472
 20
27.108
 21
27.108
  0
LINE
  8
0
 10
29.472
 11
29.025
 20
27.108
 21
27.187
  0
LINE
  8
0
 10
29.025
 11
28.6
 20
27.187
 21
27.342
  0
LINE
  8
0
 10
28.6
 11
28.207
 20
27.342
 21
27.569
  0
LINE
  8
0
 10
28.207
 11
27.86
 20
27.569
 21
27.86
  0
LINE
  8
0
 10
27.86
 11
27.569
 20
27.86
 21
28.207
  0
LINE
  8
0
 10
27.569
 11
27.342
 20
28.207
 21
28.6
  0
LINE
  8
0
 10
27.342
 11
27.187
 20
28.6
 21
29.025
  0
LINE
  8
0
 10
27.187
 11
27.108
 20
29.025
 21
29.472
  0
ENDSEC
  0
SECTION
  2
OBJECTS
  0
DICTIONARY
  0
ENDSEC
  0
EOF
