  0
SECTION
  2
BLOCKS
  0
ENDSEC
  0
SECTION
  2
ENTITIES
  0
LINE
  8
0
 10
-42
 11
-41.942
 20
0
 21
2.198
  0
LINE
  8
0
 10
-41.942
 11
-41.77
 20
2.198
 21
4.39
  0
LINE
  8
0
 10
-41.77
 11
-41.483
 20
4.39
 21
6.57
  0
LINE
  8
0
 10
-41.483
 11
-41.082
 20
6.57
 21
8.732
  0
LINE
  8
0
 10
-41.082
 11
-40.569
 20
8.732
 21
10.87
  0
LINE
  8
0
 10
-40.569
 11
-35.494
 20
10.87
 21
31.251
  0
LINE
  8
0
 10
-35.494
 11
-35.136
 20
31.251
 21
32.234
  0
LINE
  8
0
 10
-35.136
 11
-34.614
 20
32.234
 21
33.14
  0
LINE
  8
0
 10
-34.614
 11
-33.941
 20
33.14
 21
33.941
  0
LINE
  8
0
 10
-33.941
 11
-33.14
 20
33.941
 21
34.614
  0
LINE
  8
0
 10
-33.14
 11
-32.234
 20
34.614
 21
35.136
  0
LINE
  8
0
 10
-32.234
 11
-31.251
 20
35.136
 21
35.494
  0
LINE
  8
0
 10
-31.251
 11
-10.87
 20
35.494
 21
40.569
  0
LINE
  8
0
 10
-10.87
 11
-8.732
 20
40.569
 21
41.082
  0
LINE
  8
0
 10
-8.732
 11
-6.57
 20
41.082
 21
41.483
  0
LINE
  8
0
 10
-6.57
 11
-4.39
 20
41.483
 21
41.77
  0
LINE
  8
0
 10
-4.39
 11
-2.198
 20
41.77
 21
41.942
  0
LINE
  8
0
 10
-2.198
 11
0
 20
41.942
 21
42
  0
LINE
  8
0
 10
0
 11
2.198
 20
42
 21
41.942
  0
LINE
  8
0
 10
2.198
 11
4.39
 20
41.942
 21
41.77
  0
LINE
  8
0
 10
4.39
 11
6.57
 20
41.77
 21
41.483
  0
LINE
  8
0
 10
6.57
 11
8.732
 20
41.483
 21
41.082
  0
LINE
  8
0
 10
8.732
 11
10.87
 20
41.082
 21
40.569
  0
LINE
  8
0
 10
10.87
 11
31.251
 20
40.569
 21
35.494
  0
LINE
  8
0
 10
31.251
 11
32.234
 20
35.494
 21
35.136
  0
LINE
  8
0
 10
32.234
 11
33.14
 20
35.136
 21
34.614
  0
LINE
  8
0
 10
33.14
 11
33.941
 20
34.614
 21
33.941
  0
LINE
  8
0
 10
33.941
 11
34.614
 20
33.941
 21
33.14
  0
LINE
  8
0
 10
34.614
 11
35.136
 20
33.14
 21
32.234
  0
LINE
  8
0
 10
35.136
 11
35.494
 20
32.234
 21
31.251
  0
LINE
  8
0
 10
35.494
 11
40.569
 20
31.251
 21
10.87
  0
LINE
  8
0
 10
40.569
 11
41.082
 20
10.87
 21
8.732
  0
LINE
  8
0
 10
41.082
 11
41.483
 20
8.732
 21
6.57
  0
LINE
  8
0
 10
41.483
 11
41.77
 20
6.57
 21
4.39
  0
LINE
  8
0
 10
41.77
 11
41.942
 20
4.39
 21
2.198
  0
LINE
  8
0
 10
41.942
 11
42
 20
2.198
 21
0
  0
LINE
  8
0
 10
42
 11
41.942
 20
0
 21
-2.198
  0
LINE
  8
0
 10
41.942
 11
41.77
 20
-2.198
 21
-4.39
  0
LINE
  8
0
 10
41.77
 11
41.483
 20
-4.39
 21
-6.57
  0
LINE
  8
0
 10
41.483
 11
41.082
 20
-6.57
 21
-8.732
  0
LINE
  8
0
 10
41.082
 11
40.569
 20
-8.732
 21
-10.87
  0
LINE
  8
0
 10
40.569
 11
35.494
 20
-10.87
 21
-31.251
  0
LINE
  8
0
 10
35.494
 11
35.136
 20
-31.251
 21
-32.234
  0
LINE
  8
0
 10
35.136
 11
34.614
 20
-32.234
 21
-33.14
  0
LINE
  8
0
 10
34.614
 11
33.941
 20
-33.14
 21
-33.941
  0
LINE
  8
0
 10
33.941
 11
33.14
 20
-33.941
 21
-34.614
  0
LINE
  8
0
 10
33.14
 11
32.234
 20
-34.614
 21
-35.136
  0
LINE
  8
0
 10
32.234
 11
31.251
 20
-35.136
 21
-35.494
  0
LINE
  8
0
 10
31.251
 11
10.87
 20
-35.494
 21
-40.569
  0
LINE
  8
0
 10
10.87
 11
8.732
 20
-40.569
 21
-41.082
  0
LINE
  8
0
 10
8.732
 11
6.57
 20
-41.082
 21
-41.483
  0
LINE
  8
0
 10
6.57
 11
4.39
 20
-41.483
 21
-41.77
  0
LINE
  8
0
 10
4.39
 11
2.198
 20
-41.77
 21
-41.942
  0
LINE
  8
0
 10
2.198
 11
0
 20
-41.942
 21
-42
  0
LINE
  8
0
 10
0
 11
-2.198
 20
-42
 21
-41.942
  0
LINE
  8
0
 10
-2.198
 11
-4.39
 20
-41.942
 21
-41.77
  0
LINE
  8
0
 10
-4.39
 11
-6.57
 20
-41.77
 21
-41.483
  0
LINE
  8
0
 10
-6.57
 11
-8.732
 20
-41.483
 21
-41.082
  0
LINE
  8
0
 10
-8.732
 11
-10.87
 20
-41.082
 21
-40.569
  0
LINE
  8
0
 10
-10.87
 11
-31.251
 20
-40.569
 21
-35.494
  0
LINE
  8
0
 10
-31.251
 11
-32.234
 20
-35.494
 21
-35.136
  0
LINE
  8
0
 10
-32.234
 11
-33.14
 20
-35.136
 21
-34.614
  0
LINE
  8
0
 10
-33.14
 11
-33.941
 20
-34.614
 21
-33.941
  0
LINE
  8
0
 10
-33.941
 11
-34.614
 20
-33.941
 21
-33.14
  0
LINE
  8
0
 10
-34.614
 11
-35.136
 20
-33.14
 21
-32.234
  0
LINE
  8
0
 10
-35.136
 11
-35.494
 20
-32.234
 21
-31.251
  0
LINE
  8
0
 10
-35.494
 11
-40.569
 20
-31.251
 21
-10.87
  0
LINE
  8
0
 10
-40.569
 11
-41.082
 20
-10.87
 21
-8.732
  0
LINE
  8
0
 10
-41.082
 11
-41.483
 20
-8.732
 21
-6.57
  0
LINE
  8
0
 10
-41.483
 11
-41.77
 20
-6.57
 21
-4.39
  0
LINE
  8
0
 10
-41.77
 11
-41.942
 20
-4.39
 21
-2.198
  0
LINE
  8
0
 10
-41.942
 11
-42
 20
-2.198
 21
0
  0
LINE
  8
0
 10
-40
 11
-39.945
 20
0
 21
2.093
  0
LINE
  8
0
 10
-39.945
 11
-39.781
 20
2.093
 21
4.181
  0
LINE
  8
0
 10
-39.781
 11
-39.508
 20
4.181
 21
6.257
  0
LINE
  8
0
 10
-39.508
 11
-39.126
 20
6.257
 21
8.316
  0
LINE
  8
0
 10
-39.126
 11
-38.637
 20
8.316
 21
10.353
  0
LINE
  8
0
 10
-38.637
 11
-33.562
 20
10.353
 21
30.734
  0
LINE
  8
0
 10
-33.562
 11
-33.324
 20
30.734
 21
31.389
  0
LINE
  8
0
 10
-33.324
 11
-32.975
 20
31.389
 21
31.992
  0
LINE
  8
0
 10
-32.975
 11
-32.527
 20
31.992
 21
32.527
  0
LINE
  8
0
 10
-32.527
 11
-31.992
 20
32.527
 21
32.975
  0
LINE
  8
0
 10
-31.992
 11
-31.389
 20
32.975
 21
33.324
  0
LINE
  8
0
 10
-31.389
 11
-30.734
 20
33.324
 21
33.562
  0
LINE
  8
0
 10
-30.734
 11
-10.353
 20
33.562
 21
38.637
  0
LINE
  8
0
 10
-10.353
 11
-8.316
 20
38.637
 21
39.126
  0
LINE
  8
0
 10
-8.316
 11
-6.257
 20
39.126
 21
39.508
  0
LINE
  8
0
 10
-6.257
 11
-4.181
 20
39.508
 21
39.781
  0
LINE
  8
0
 10
-4.181
 11
-2.093
 20
39.781
 21
39.945
  0
LINE
  8
0
 10
-2.093
 11
0
 20
39.945
 21
40
  0
LINE
  8
0
 10
0
 11
2.093
 20
40
 21
39.945
  0
LINE
  8
0
 10
2.093
 11
4.181
 20
39.945
 21
39.781
  0
LINE
  8
0
 10
4.181
 11
6.257
 20
39.781
 21
39.508
  0
LINE
  8
0
 10
6.257
 11
8.316
 20
39.508
 21
39.126
  0
LINE
  8
0
 10
8.316
 11
10.353
 20
39.126
 21
38.637
  0
LINE
  8
0
 10
10.353
 11
30.734
 20
38.637
 21
33.562
  0
LINE
  8
0
 10
30.734
 11
31.389
 20
33.562
 21
33.324
  0
LINE
  8
0
 10
31.389
 11
31.992
 20
33.324
 21
32.975
  0
LINE
  8
0
 10
31.992
 11
32.527
 20
32.975
 21
32.527
  0
LINE
  8
0
 10
32.527
 11
32.975
 20
32.527
 21
31.992
  0
LINE
  8
0
 10
32.975
 11
33.324
 20
31.992
 21
31.389
  0
LINE
  8
0
 10
33.324
 11
33.562
 20
31.389
 21
30.734
  0
LINE
  8
0
 10
33.562
 11
38.637
 20
30.734
 21
10.353
  0
LINE
  8
0
 10
38.637
 11
39.126
 20
10.353
 21
8.316
  0
LINE
  8
0
 10
39.126
 11
39.508
 20
8.316
 21
6.257
  0
LINE
  8
0
 10
39.508
 11
39.781
 20
6.257
 21
4.181
  0
LINE
  8
0
 10
39.781
 11
39.945
 20
4.181
 21
2.093
  0
LINE
  8
0
 10
39.945
 11
40
 20
2.093
 21
0
  0
LINE
  8
0
 10
40
 11
39.945
 20
0
 21
-2.093
  0
LINE
  8
0
 10
39.945
 11
39.781
 20
-2.093
 21
-4.181
  0
LINE
  8
0
 10
39.781
 11
39.508
 20
-4.181
 21
-6.257
  0
LINE
  8
0
 10
39.508
 11
39.126
 20
-6.257
 21
-8.316
  0
LINE
  8
0
 10
39.126
 11
38.637
 20
-8.316
 21
-10.353
  0
LINE
  8
0
 10
38.637
 11
33.562
 20
-10.353
 21
-30.734
  0
LINE
  8
0
 10
33.562
 11
33.324
 20
-30.734
 21
-31.389
  0
LINE
  8
0
 10
33.324
 11
32.975
 20
-31.389
 21
-31.992
  0
LINE
  8
0
 10
32.975
 11
32.527
 20
-31.992
 21
-32.527
  0
LINE
  8
0
 10
32.527
 11
31.992
 20
-32.527
 21
-32.975
  0
LINE
  8
0
 10
31.992
 11
31.389
 20
-32.975
 21
-33.324
  0
LINE
  8
0
 10
31.389
 11
30.734
 20
-33.324
 21
-33.562
  0
LINE
  8
0
 10
30.734
 11
10.353
 20
-33.562
 21
-38.637
  0
LINE
  8
0
 10
10.353
 11
8.316
 20
-38.637
 21
-39.126
  0
LINE
  8
0
 10
8.316
 11
6.257
 20
-39.126
 21
-39.508
  0
LINE
  8
0
 10
6.257
 11
4.181
 20
-39.508
 21
-39.781
  0
LINE
  8
0
 10
4.181
 11
2.093
 20
-39.781
 21
-39.945
  0
LINE
  8
0
 10
2.093
 11
0
 20
-39.945
 21
-40
  0
LINE
  8
0
 10
0
 11
-2.093
 20
-40
 21
-39.945
  0
LINE
  8
0
 10
-2.093
 11
-4.181
 20
-39.945
 21
-39.781
  0
LINE
  8
0
 10
-4.181
 11
-6.257
 20
-39.781
 21
-39.508
  0
LINE
  8
0
 10
-6.257
 11
-8.316
 20
-39.508
 21
-39.126
  0
LINE
  8
0
 10
-8.316
 11
-10.353
 20
-39.126
 21
-38.637
  0
LINE
  8
0
 10
-10.353
 11
-30.734
 20
-38.637
 21
-33.562
  0
LINE
  8
0
 10
-30.734
 11
-31.389
 20
-33.562
 21
-33.324
  0
LINE
  8
0
 10
-31.389
 11
-31.992
 20
-33.324
 21
-32.975
  0
LINE
  8
0
 10
-31.992
 11
-32.527
 20
-32.975
 21
-32.527
  0
LINE
  8
0
 10
-32.527
 11
-32.975
 20
-32.527
 21
-31.992
  0
LINE
  8
0
 10
-32.975
 11
-33.324
 20
-31.992
 21
-31.389
  0
LINE
  8
0
 10
-33.324
 11
-33.562
 20
-31.389
 21
-30.734
  0
LINE
  8
0
 10
-33.562
 11
-38.637
 20
-30.734
 21
-10.353
  0
LINE
  8
0
 10
-38.637
 11
-39.126
 20
-10.353
 21
-8.316
  0
LINE
  8
0
 10
-39.126
 11
-39.508
 20
-8.316
 21
-6.257
  0
LINE
  8
0
 10
-39.508
 11
-39.781
 20
-6.257
 21
-4.181
  0
LINE
  8
0
 10
-39.781
 11
-39.945
 20
-4.181
 21
-2.093
  0
LINE
  8
0
 10
-39.945
 11
-40
 20
-2.093
 21
0
  0
ENDSEC
  0
SECTION
  2
OBJECTS
  0
DICTIONARY
  0
ENDSEC
  0
EOF
