  0
SECTION
  2
BLOCKS
  0
ENDSEC
  0
SECTION
  2
ENTITIES
  0
LINE
  8
0
 10
-1.6
 11
-1.6
 20
2.48
 21
5.606
  0
LINE
  8
0
 10
-1.6
 11
-0.064
 20
5.606
 21
5.606
  0
LINE
  8
0
 10
-0.064
 11
-0.064
 20
5.606
 21
20.937
  0
LINE
  8
0
 10
-0.064
 11
-1.6
 20
20.937
 21
20.937
  0
LINE
  8
0
 10
-1.6
 11
-1.6
 20
20.937
 21
24.063
  0
LINE
  8
0
 10
-1.6
 11
1.6
 20
24.063
 21
24.063
  0
LINE
  8
0
 10
1.6
 11
1.6
 20
24.063
 21
24.006
  0
LINE
  8
0
 10
1.6
 11
20.586
 20
24.006
 21
6.758
  0
LINE
  8
0
 10
20.586
 11
20.676
 20
6.758
 21
6.652
  0
LINE
  8
0
 10
20.676
 11
20.746
 20
6.652
 21
6.531
  0
LINE
  8
0
 10
20.746
 11
20.793
 20
6.531
 21
6.4
  0
LINE
  8
0
 10
20.793
 11
20.818
 20
6.4
 21
6.262
  0
LINE
  8
0
 10
20.818
 11
20.818
 20
6.262
 21
6.123
  0
LINE
  8
0
 10
20.818
 11
20.793
 20
6.123
 21
5.986
  0
LINE
  8
0
 10
20.793
 11
20.746
 20
5.986
 21
5.855
  0
LINE
  8
0
 10
20.746
 11
20.676
 20
5.855
 21
5.734
  0
LINE
  8
0
 10
20.676
 11
20.586
 20
5.734
 21
5.627
  0
LINE
  8
0
 10
20.586
 11
20.48
 20
5.627
 21
5.537
  0
LINE
  8
0
 10
20.48
 11
20.359
 20
5.537
 21
5.467
  0
LINE
  8
0
 10
20.359
 11
20.227
 20
5.467
 21
5.42
  0
LINE
  8
0
 10
20.227
 11
1.01
 20
5.42
 21
0.291
  0
LINE
  8
0
 10
1.01
 11
0.875
 20
0.291
 21
0.255
  0
LINE
  8
0
 10
0.875
 11
0.736
 20
0.255
 21
0.243
  0
LINE
  8
0
 10
0.736
 11
0.597
 20
0.243
 21
0.255
  0
LINE
  8
0
 10
0.597
 11
0.462
 20
0.255
 21
0.291
  0
LINE
  8
0
 10
0.462
 11
0.336
 20
0.291
 21
0.35
  0
LINE
  8
0
 10
0.336
 11
0.223
 20
0.35
 21
0.43
  0
LINE
  8
0
 10
0.223
 11
0.124
 20
0.43
 21
0.529
  0
LINE
  8
0
 10
0.124
 11
0.043
 20
0.529
 21
0.643
  0
LINE
  8
0
 10
0.043
 11
-0.016
 20
0.643
 21
0.769
  0
LINE
  8
0
 10
-0.016
 11
-0.051
 20
0.769
 21
0.904
  0
LINE
  8
0
 10
-0.051
 11
-0.064
 20
0.904
 21
1.043
  0
LINE
  8
0
 10
-0.064
 11
-0.064
 20
1.043
 21
2.48
  0
LINE
  8
0
 10
-0.064
 11
-1.6
 20
2.48
 21
2.48
  0
LINE
  8
0
 10
2.148
 11
4.922
 20
3.822
 21
4.565
  0
LINE
  8
0
 10
4.922
 11
5.303
 20
4.565
 21
3.144
  0
LINE
  8
0
 10
5.303
 11
2.529
 20
3.144
 21
2.4
  0
LINE
  8
0
 10
2.529
 11
2.148
 20
2.4
 21
3.822
  0
LINE
  8
0
 10
14.455
 11
17.229
 20
7.12
 21
7.863
  0
LINE
  8
0
 10
17.229
 11
17.61
 20
7.863
 21
6.441
  0
LINE
  8
0
 10
17.61
 11
14.836
 20
6.441
 21
5.698
  0
LINE
  8
0
 10
14.836
 11
14.455
 20
5.698
 21
7.12
  0
ENDSEC
  0
SECTION
  2
OBJECTS
  0
DICTIONARY
  0
ENDSEC
  0
EOF
