  0
SECTION
  2
BLOCKS
  0
ENDSEC
  0
SECTION
  2
ENTITIES
  0
LINE
  8
0
 10
-58.936
 11
-58.936
 20
-18.936
 21
-16.064
  0
LINE
  8
0
 10
-58.936
 11
-56.064
 20
-16.064
 21
-16.064
  0
LINE
  8
0
 10
-56.064
 11
-56.064
 20
-16.064
 21
-18.936
  0
LINE
  8
0
 10
-56.064
 11
-58.936
 20
-18.936
 21
-18.936
  0
LINE
  8
0
 10
-58.936
 11
-58.936
 20
16.064
 21
18.936
  0
LINE
  8
0
 10
-58.936
 11
-56.064
 20
18.936
 21
18.936
  0
LINE
  8
0
 10
-56.064
 11
-56.064
 20
18.936
 21
16.064
  0
LINE
  8
0
 10
-56.064
 11
-58.936
 20
16.064
 21
16.064
  0
LINE
  8
0
 10
-46.936
 11
-46.936
 20
-24.936
 21
-22.064
  0
LINE
  8
0
 10
-46.936
 11
-44.064
 20
-22.064
 21
-22.064
  0
LINE
  8
0
 10
-44.064
 11
-44.064
 20
-22.064
 21
-24.936
  0
LINE
  8
0
 10
-44.064
 11
-46.936
 20
-24.936
 21
-24.936
  0
LINE
  8
0
 10
-46.936
 11
-46.936
 20
22.064
 21
24.936
  0
LINE
  8
0
 10
-46.936
 11
-44.064
 20
24.936
 21
24.936
  0
LINE
  8
0
 10
-44.064
 11
-44.064
 20
24.936
 21
22.064
  0
LINE
  8
0
 10
-44.064
 11
-46.936
 20
22.064
 21
22.064
  0
LINE
  8
0
 10
-30.774
 11
-25
 20
-5
 21
5
  0
LINE
  8
0
 10
-25
 11
-19.226
 20
5
 21
-5
  0
LINE
  8
0
 10
-19.226
 11
-30.774
 20
-5
 21
-5
  0
LINE
  8
0
 10
-60.5
 11
-60.5
 20
-29.5
 21
25
  0
LINE
  8
0
 10
-60.5
 11
-60.477
 20
25
 21
25.26
  0
LINE
  8
0
 10
-60.477
 11
-60.41
 20
25.26
 21
25.513
  0
LINE
  8
0
 10
-60.41
 11
-60.299
 20
25.513
 21
25.75
  0
LINE
  8
0
 10
-60.299
 11
-60.149
 20
25.75
 21
25.964
  0
LINE
  8
0
 10
-60.149
 11
-59.964
 20
25.964
 21
26.149
  0
LINE
  8
0
 10
-59.964
 11
-59.75
 20
26.149
 21
26.299
  0
LINE
  8
0
 10
-59.75
 11
-59.513
 20
26.299
 21
26.41
  0
LINE
  8
0
 10
-59.513
 11
-59.26
 20
26.41
 21
26.477
  0
LINE
  8
0
 10
-59.26
 11
-59
 20
26.477
 21
26.5
  0
LINE
  8
0
 10
-59
 11
59
 20
26.5
 21
26.5
  0
LINE
  8
0
 10
59
 11
59.26
 20
26.5
 21
26.477
  0
LINE
  8
0
 10
59.26
 11
59.513
 20
26.477
 21
26.41
  0
LINE
  8
0
 10
59.513
 11
59.75
 20
26.41
 21
26.299
  0
LINE
  8
0
 10
59.75
 11
59.964
 20
26.299
 21
26.149
  0
LINE
  8
0
 10
59.964
 11
60.149
 20
26.149
 21
25.964
  0
LINE
  8
0
 10
60.149
 11
60.299
 20
25.964
 21
25.75
  0
LINE
  8
0
 10
60.299
 11
60.41
 20
25.75
 21
25.513
  0
LINE
  8
0
 10
60.41
 11
60.477
 20
25.513
 21
25.26
  0
LINE
  8
0
 10
60.477
 11
60.5
 20
25.26
 21
25
  0
LINE
  8
0
 10
60.5
 11
60.5
 20
25
 21
-29.5
  0
LINE
  8
0
 10
60.5
 11
54.5
 20
-29.5
 21
-29.5
  0
LINE
  8
0
 10
54.5
 11
54.448
 20
-29.5
 21
-29.344
  0
LINE
  8
0
 10
54.448
 11
54.239
 20
-29.344
 21
-29.185
  0
LINE
  8
0
 10
54.239
 11
53.873
 20
-29.185
 21
-29.032
  0
LINE
  8
0
 10
53.873
 11
53.35
 20
-29.032
 21
-28.876
  0
LINE
  8
0
 10
53.35
 11
52.723
 20
-28.876
 21
-28.723
  0
LINE
  8
0
 10
52.723
 11
51.94
 20
-28.723
 21
-28.573
  0
LINE
  8
0
 10
51.94
 11
51.051
 20
-28.573
 21
-28.426
  0
LINE
  8
0
 10
51.051
 11
50.006
 20
-28.426
 21
-28.279
  0
LINE
  8
0
 10
50.006
 11
48.805
 20
-28.279
 21
-28.138
  0
LINE
  8
0
 10
48.805
 11
47.499
 20
-28.138
 21
-28
  0
LINE
  8
0
 10
47.499
 11
46.088
 20
-28
 21
-27.865
  0
LINE
  8
0
 10
46.088
 11
44.52
 20
-27.865
 21
-27.736
  0
LINE
  8
0
 10
44.52
 11
42.848
 20
-27.736
 21
-27.613
  0
LINE
  8
0
 10
42.848
 11
41.072
 20
-27.613
 21
-27.493
  0
LINE
  8
0
 10
41.072
 11
39.191
 20
-27.493
 21
-27.379
  0
LINE
  8
0
 10
39.191
 11
37.205
 20
-27.379
 21
-27.271
  0
LINE
  8
0
 10
37.205
 11
35.115
 20
-27.271
 21
-27.169
  0
LINE
  8
0
 10
35.115
 11
32.973
 20
-27.169
 21
-27.073
  0
LINE
  8
0
 10
32.973
 11
30.726
 20
-27.073
 21
-26.983
  0
LINE
  8
0
 10
30.726
 11
28.375
 20
-26.983
 21
-26.902
  0
LINE
  8
0
 10
28.375
 11
25.972
 20
-26.902
 21
-26.827
  0
LINE
  8
0
 10
25.972
 11
23.516
 20
-26.827
 21
-26.758
  0
LINE
  8
0
 10
23.516
 11
20.956
 20
-26.758
 21
-26.698
  0
LINE
  8
0
 10
20.956
 11
18.395
 20
-26.698
 21
-26.647
  0
LINE
  8
0
 10
18.395
 11
15.783
 20
-26.647
 21
-26.602
  0
LINE
  8
0
 10
15.783
 11
13.118
 20
-26.602
 21
-26.566
  0
LINE
  8
0
 10
13.118
 11
10.401
 20
-26.566
 21
-26.536
  0
LINE
  8
0
 10
10.401
 11
7.736
 20
-26.536
 21
-26.515
  0
LINE
  8
0
 10
7.736
 11
4.967
 20
-26.515
 21
-26.503
  0
LINE
  8
0
 10
4.967
 11
3
 20
-26.503
 21
-26.5
  0
LINE
  8
0
 10
3
 11
2.87
 20
-26.5
 21
-26.489
  0
LINE
  8
0
 10
2.87
 11
2.743
 20
-26.489
 21
-26.455
  0
LINE
  8
0
 10
2.743
 11
2.625
 20
-26.455
 21
-26.4
  0
LINE
  8
0
 10
2.625
 11
2.518
 20
-26.4
 21
-26.325
  0
LINE
  8
0
 10
2.518
 11
2.425
 20
-26.325
 21
-26.232
  0
LINE
  8
0
 10
2.425
 11
2.35
 20
-26.232
 21
-26.125
  0
LINE
  8
0
 10
2.35
 11
2.295
 20
-26.125
 21
-26.007
  0
LINE
  8
0
 10
2.295
 11
2.261
 20
-26.007
 21
-25.88
  0
LINE
  8
0
 10
2.261
 11
2.25
 20
-25.88
 21
-25.75
  0
LINE
  8
0
 10
2.25
 11
2.25
 20
-25.75
 21
-19.75
  0
LINE
  8
0
 10
2.25
 11
2.216
 20
-19.75
 21
-19.359
  0
LINE
  8
0
 10
2.216
 11
2.114
 20
-19.359
 21
-18.98
  0
LINE
  8
0
 10
2.114
 11
1.949
 20
-18.98
 21
-18.625
  0
LINE
  8
0
 10
1.949
 11
1.724
 20
-18.625
 21
-18.304
  0
LINE
  8
0
 10
1.724
 11
1.446
 20
-18.304
 21
-18.026
  0
LINE
  8
0
 10
1.446
 11
1.125
 20
-18.026
 21
-17.801
  0
LINE
  8
0
 10
1.125
 11
0.77
 20
-17.801
 21
-17.636
  0
LINE
  8
0
 10
0.77
 11
0.391
 20
-17.636
 21
-17.534
  0
LINE
  8
0
 10
0.391
 11
0
 20
-17.534
 21
-17.5
  0
LINE
  8
0
 10
0
 11
-0.391
 20
-17.5
 21
-17.534
  0
LINE
  8
0
 10
-0.391
 11
-0.77
 20
-17.534
 21
-17.636
  0
LINE
  8
0
 10
-0.77
 11
-1.125
 20
-17.636
 21
-17.801
  0
LINE
  8
0
 10
-1.125
 11
-1.446
 20
-17.801
 21
-18.026
  0
LINE
  8
0
 10
-1.446
 11
-1.724
 20
-18.026
 21
-18.304
  0
LINE
  8
0
 10
-1.724
 11
-1.949
 20
-18.304
 21
-18.625
  0
LINE
  8
0
 10
-1.949
 11
-2.114
 20
-18.625
 21
-18.98
  0
LINE
  8
0
 10
-2.114
 11
-2.216
 20
-18.98
 21
-19.359
  0
LINE
  8
0
 10
-2.216
 11
-2.25
 20
-19.359
 21
-19.75
  0
LINE
  8
0
 10
-2.25
 11
-2.25
 20
-19.75
 21
-25.75
  0
LINE
  8
0
 10
-2.25
 11
-2.261
 20
-25.75
 21
-25.88
  0
LINE
  8
0
 10
-2.261
 11
-2.295
 20
-25.88
 21
-26.007
  0
LINE
  8
0
 10
-2.295
 11
-2.35
 20
-26.007
 21
-26.125
  0
LINE
  8
0
 10
-2.35
 11
-2.425
 20
-26.125
 21
-26.232
  0
LINE
  8
0
 10
-2.425
 11
-2.518
 20
-26.232
 21
-26.325
  0
LINE
  8
0
 10
-2.518
 11
-2.625
 20
-26.325
 21
-26.4
  0
LINE
  8
0
 10
-2.625
 11
-2.743
 20
-26.4
 21
-26.455
  0
LINE
  8
0
 10
-2.743
 11
-2.87
 20
-26.455
 21
-26.489
  0
LINE
  8
0
 10
-2.87
 11
-3
 20
-26.489
 21
-26.501
  0
LINE
  8
0
 10
-3
 11
-4.967
 20
-26.501
 21
-26.503
  0
LINE
  8
0
 10
-4.967
 11
-7.736
 20
-26.503
 21
-26.515
  0
LINE
  8
0
 10
-7.736
 11
-10.401
 20
-26.515
 21
-26.536
  0
LINE
  8
0
 10
-10.401
 11
-13.118
 20
-26.536
 21
-26.566
  0
LINE
  8
0
 10
-13.118
 11
-15.783
 20
-26.566
 21
-26.602
  0
LINE
  8
0
 10
-15.783
 11
-18.395
 20
-26.602
 21
-26.647
  0
LINE
  8
0
 10
-18.395
 11
-20.956
 20
-26.647
 21
-26.698
  0
LINE
  8
0
 10
-20.956
 11
-23.516
 20
-26.698
 21
-26.758
  0
LINE
  8
0
 10
-23.516
 11
-25.972
 20
-26.758
 21
-26.827
  0
LINE
  8
0
 10
-25.972
 11
-28.375
 20
-26.827
 21
-26.902
  0
LINE
  8
0
 10
-28.375
 11
-30.726
 20
-26.902
 21
-26.983
  0
LINE
  8
0
 10
-30.726
 11
-32.973
 20
-26.983
 21
-27.073
  0
LINE
  8
0
 10
-32.973
 11
-35.115
 20
-27.073
 21
-27.169
  0
LINE
  8
0
 10
-35.115
 11
-37.205
 20
-27.169
 21
-27.271
  0
LINE
  8
0
 10
-37.205
 11
-39.191
 20
-27.271
 21
-27.379
  0
LINE
  8
0
 10
-39.191
 11
-41.072
 20
-27.379
 21
-27.493
  0
LINE
  8
0
 10
-41.072
 11
-42.848
 20
-27.493
 21
-27.613
  0
LINE
  8
0
 10
-42.848
 11
-44.52
 20
-27.613
 21
-27.736
  0
LINE
  8
0
 10
-44.52
 11
-46.088
 20
-27.736
 21
-27.865
  0
LINE
  8
0
 10
-46.088
 11
-47.499
 20
-27.865
 21
-28
  0
LINE
  8
0
 10
-47.499
 11
-48.805
 20
-28
 21
-28.138
  0
LINE
  8
0
 10
-48.805
 11
-50.006
 20
-28.138
 21
-28.279
  0
LINE
  8
0
 10
-50.006
 11
-51.051
 20
-28.279
 21
-28.426
  0
LINE
  8
0
 10
-51.051
 11
-51.94
 20
-28.426
 21
-28.573
  0
LINE
  8
0
 10
-51.94
 11
-52.723
 20
-28.573
 21
-28.723
  0
LINE
  8
0
 10
-52.723
 11
-53.35
 20
-28.723
 21
-28.876
  0
LINE
  8
0
 10
-53.35
 11
-53.873
 20
-28.876
 21
-29.032
  0
LINE
  8
0
 10
-53.873
 11
-54.239
 20
-29.032
 21
-29.185
  0
LINE
  8
0
 10
-54.239
 11
-54.448
 20
-29.185
 21
-29.344
  0
LINE
  8
0
 10
-54.448
 11
-54.5
 20
-29.344
 21
-29.5
  0
LINE
  8
0
 10
-54.5
 11
-60.5
 20
-29.5
 21
-29.5
  0
LINE
  8
0
 10
19.226
 11
30.774
 20
5
 21
5
  0
LINE
  8
0
 10
30.774
 11
25
 20
5
 21
-5
  0
LINE
  8
0
 10
25
 11
19.226
 20
-5
 21
5
  0
LINE
  8
0
 10
44.064
 11
44.064
 20
-24.936
 21
-22.064
  0
LINE
  8
0
 10
44.064
 11
46.936
 20
-22.064
 21
-22.064
  0
LINE
  8
0
 10
46.936
 11
46.936
 20
-22.064
 21
-24.936
  0
LINE
  8
0
 10
46.936
 11
44.064
 20
-24.936
 21
-24.936
  0
LINE
  8
0
 10
44.064
 11
44.064
 20
22.064
 21
24.936
  0
LINE
  8
0
 10
44.064
 11
46.936
 20
24.936
 21
24.936
  0
LINE
  8
0
 10
46.936
 11
46.936
 20
24.936
 21
22.064
  0
LINE
  8
0
 10
46.936
 11
44.064
 20
22.064
 21
22.064
  0
LINE
  8
0
 10
56.064
 11
56.064
 20
-18.936
 21
-16.064
  0
LINE
  8
0
 10
56.064
 11
58.936
 20
-16.064
 21
-16.064
  0
LINE
  8
0
 10
58.936
 11
58.936
 20
-16.064
 21
-18.936
  0
LINE
  8
0
 10
58.936
 11
56.064
 20
-18.936
 21
-18.936
  0
LINE
  8
0
 10
56.064
 11
56.064
 20
16.064
 21
18.936
  0
LINE
  8
0
 10
56.064
 11
58.936
 20
18.936
 21
18.936
  0
LINE
  8
0
 10
58.936
 11
58.936
 20
18.936
 21
16.064
  0
LINE
  8
0
 10
58.936
 11
56.064
 20
16.064
 21
16.064
  0
ENDSEC
  0
SECTION
  2
OBJECTS
  0
DICTIONARY
  0
ENDSEC
  0
EOF
